G04 EAGLE Gerber RS-274X export*
G75*
%MOMM*%
%FSLAX34Y34*%
%LPD*%
%INTop Copper*%
%IPPOS*%
%AMOC8*
5,1,8,0,0,1.08239X$1,22.5*%
G01*
%ADD10C,1.408000*%
%ADD11C,4.216400*%
%ADD12C,1.790700*%
%ADD13C,1.879600*%
%ADD14C,3.500000*%
%ADD15P,1.539592X8X22.500000*%
%ADD16C,1.524000*%
%ADD17C,1.320800*%
%ADD18C,1.700000*%
%ADD19C,1.651000*%
%ADD20R,1.651000X1.651000*%
%ADD21C,2.032000*%
%ADD22R,2.540000X1.270000*%
%ADD23C,0.152400*%
%ADD24C,0.756400*%

G36*
X203220Y596142D02*
X203220Y596142D01*
X203239Y596140D01*
X203310Y596155D01*
X203381Y596161D01*
X203411Y596173D01*
X203443Y596179D01*
X203460Y596188D01*
X203480Y596192D01*
X203542Y596229D01*
X203607Y596257D01*
X203639Y596283D01*
X203660Y596294D01*
X203674Y596308D01*
X203691Y596318D01*
X203706Y596336D01*
X203738Y596362D01*
X254315Y646939D01*
X304800Y646939D01*
X304890Y646954D01*
X304981Y646961D01*
X305011Y646973D01*
X305043Y646979D01*
X305123Y647021D01*
X305207Y647057D01*
X305239Y647083D01*
X305260Y647094D01*
X305282Y647117D01*
X305338Y647162D01*
X308224Y650048D01*
X308266Y650106D01*
X308316Y650158D01*
X308338Y650205D01*
X308368Y650247D01*
X308389Y650316D01*
X308419Y650381D01*
X308425Y650433D01*
X308440Y650483D01*
X308438Y650554D01*
X308446Y650625D01*
X308435Y650676D01*
X308434Y650728D01*
X308409Y650796D01*
X308394Y650866D01*
X308367Y650910D01*
X308349Y650959D01*
X308305Y651015D01*
X308268Y651077D01*
X308228Y651111D01*
X308196Y651151D01*
X308135Y651190D01*
X308081Y651237D01*
X308033Y651256D01*
X307989Y651284D01*
X307919Y651302D01*
X307853Y651329D01*
X307781Y651337D01*
X307750Y651345D01*
X307727Y651343D01*
X307686Y651347D01*
X304902Y651347D01*
X299247Y657002D01*
X299247Y659477D01*
X308138Y659477D01*
X308158Y659480D01*
X308177Y659478D01*
X308279Y659500D01*
X308381Y659517D01*
X308398Y659526D01*
X308418Y659530D01*
X308507Y659583D01*
X308598Y659632D01*
X308612Y659646D01*
X308629Y659656D01*
X308696Y659735D01*
X308767Y659810D01*
X308776Y659828D01*
X308789Y659843D01*
X308827Y659939D01*
X308871Y660033D01*
X308873Y660053D01*
X308881Y660071D01*
X308899Y660238D01*
X308899Y661762D01*
X308896Y661782D01*
X308898Y661801D01*
X308876Y661903D01*
X308859Y662005D01*
X308850Y662022D01*
X308846Y662042D01*
X308793Y662131D01*
X308744Y662222D01*
X308730Y662236D01*
X308720Y662253D01*
X308641Y662320D01*
X308566Y662391D01*
X308548Y662400D01*
X308533Y662413D01*
X308437Y662452D01*
X308343Y662495D01*
X308323Y662497D01*
X308305Y662505D01*
X308138Y662523D01*
X299247Y662523D01*
X299247Y664998D01*
X304902Y670653D01*
X306486Y670653D01*
X306557Y670664D01*
X306628Y670666D01*
X306677Y670684D01*
X306729Y670692D01*
X306792Y670726D01*
X306859Y670751D01*
X306900Y670783D01*
X306946Y670807D01*
X306996Y670860D01*
X307052Y670904D01*
X307080Y670948D01*
X307116Y670986D01*
X307146Y671051D01*
X307185Y671111D01*
X307197Y671162D01*
X307219Y671209D01*
X307227Y671280D01*
X307245Y671350D01*
X307241Y671402D01*
X307246Y671453D01*
X307231Y671524D01*
X307225Y671595D01*
X307205Y671643D01*
X307194Y671694D01*
X307157Y671755D01*
X307129Y671821D01*
X307084Y671877D01*
X307068Y671905D01*
X307050Y671920D01*
X307024Y671952D01*
X305561Y673415D01*
X305561Y698500D01*
X305547Y698590D01*
X305539Y698681D01*
X305527Y698711D01*
X305522Y698743D01*
X305479Y698823D01*
X305443Y698907D01*
X305417Y698939D01*
X305406Y698960D01*
X305383Y698982D01*
X305338Y699038D01*
X260634Y743742D01*
X260560Y743795D01*
X260491Y743855D01*
X260461Y743867D01*
X260435Y743886D01*
X260348Y743913D01*
X260263Y743947D01*
X260222Y743951D01*
X260199Y743958D01*
X260167Y743957D01*
X260096Y743965D01*
X198882Y743965D01*
X198862Y743962D01*
X198843Y743964D01*
X198741Y743942D01*
X198639Y743926D01*
X198622Y743916D01*
X198602Y743912D01*
X198513Y743859D01*
X198422Y743810D01*
X198408Y743796D01*
X198391Y743786D01*
X198324Y743707D01*
X198252Y743632D01*
X198244Y743614D01*
X198231Y743599D01*
X198192Y743503D01*
X198149Y743409D01*
X198147Y743389D01*
X198139Y743371D01*
X198121Y743204D01*
X198121Y738123D01*
X183642Y738123D01*
X183622Y738120D01*
X183603Y738122D01*
X183501Y738100D01*
X183399Y738083D01*
X183382Y738074D01*
X183362Y738070D01*
X183273Y738017D01*
X183182Y737968D01*
X183168Y737954D01*
X183151Y737944D01*
X183084Y737865D01*
X183013Y737790D01*
X183004Y737772D01*
X182991Y737757D01*
X182952Y737661D01*
X182909Y737567D01*
X182907Y737547D01*
X182899Y737529D01*
X182881Y737362D01*
X182881Y736599D01*
X182118Y736599D01*
X182098Y736596D01*
X182079Y736598D01*
X181977Y736576D01*
X181875Y736559D01*
X181858Y736550D01*
X181838Y736546D01*
X181749Y736493D01*
X181658Y736444D01*
X181644Y736430D01*
X181627Y736420D01*
X181560Y736341D01*
X181489Y736266D01*
X181480Y736248D01*
X181467Y736233D01*
X181428Y736137D01*
X181385Y736043D01*
X181383Y736023D01*
X181375Y736005D01*
X181357Y735838D01*
X181357Y724662D01*
X181360Y724642D01*
X181358Y724623D01*
X181380Y724521D01*
X181397Y724419D01*
X181406Y724402D01*
X181410Y724382D01*
X181463Y724293D01*
X181512Y724202D01*
X181526Y724188D01*
X181536Y724171D01*
X181615Y724104D01*
X181690Y724033D01*
X181708Y724024D01*
X181723Y724011D01*
X181819Y723972D01*
X181913Y723929D01*
X181933Y723927D01*
X181951Y723919D01*
X182118Y723901D01*
X182881Y723901D01*
X182881Y723899D01*
X182118Y723899D01*
X182098Y723896D01*
X182079Y723898D01*
X181977Y723876D01*
X181875Y723859D01*
X181858Y723850D01*
X181838Y723846D01*
X181749Y723793D01*
X181658Y723744D01*
X181644Y723730D01*
X181627Y723720D01*
X181560Y723641D01*
X181489Y723566D01*
X181480Y723548D01*
X181467Y723533D01*
X181428Y723437D01*
X181385Y723343D01*
X181383Y723323D01*
X181375Y723305D01*
X181357Y723138D01*
X181357Y711962D01*
X181360Y711942D01*
X181358Y711923D01*
X181380Y711821D01*
X181397Y711719D01*
X181406Y711702D01*
X181410Y711682D01*
X181463Y711593D01*
X181512Y711502D01*
X181526Y711488D01*
X181536Y711471D01*
X181615Y711404D01*
X181690Y711333D01*
X181708Y711324D01*
X181723Y711311D01*
X181819Y711272D01*
X181913Y711229D01*
X181933Y711227D01*
X181951Y711219D01*
X182118Y711201D01*
X182881Y711201D01*
X182881Y711199D01*
X182118Y711199D01*
X182098Y711196D01*
X182079Y711198D01*
X181977Y711176D01*
X181875Y711159D01*
X181858Y711150D01*
X181838Y711146D01*
X181749Y711093D01*
X181658Y711044D01*
X181644Y711030D01*
X181627Y711020D01*
X181560Y710941D01*
X181489Y710866D01*
X181480Y710848D01*
X181467Y710833D01*
X181428Y710737D01*
X181385Y710643D01*
X181383Y710623D01*
X181375Y710605D01*
X181357Y710438D01*
X181357Y700023D01*
X177800Y700023D01*
X177780Y700020D01*
X177761Y700022D01*
X177659Y700000D01*
X177557Y699983D01*
X177540Y699974D01*
X177520Y699970D01*
X177431Y699917D01*
X177340Y699868D01*
X177326Y699854D01*
X177309Y699844D01*
X177242Y699765D01*
X177171Y699690D01*
X177162Y699672D01*
X177149Y699657D01*
X177110Y699561D01*
X177067Y699467D01*
X177065Y699447D01*
X177057Y699429D01*
X177039Y699262D01*
X177039Y697738D01*
X177042Y697718D01*
X177040Y697699D01*
X177062Y697597D01*
X177079Y697495D01*
X177088Y697478D01*
X177092Y697458D01*
X177145Y697369D01*
X177194Y697278D01*
X177208Y697264D01*
X177218Y697247D01*
X177297Y697180D01*
X177372Y697109D01*
X177390Y697100D01*
X177405Y697087D01*
X177501Y697048D01*
X177595Y697005D01*
X177615Y697003D01*
X177633Y696995D01*
X177800Y696977D01*
X181357Y696977D01*
X181357Y687323D01*
X177800Y687323D01*
X177780Y687320D01*
X177761Y687322D01*
X177659Y687300D01*
X177557Y687283D01*
X177540Y687274D01*
X177520Y687270D01*
X177431Y687217D01*
X177340Y687168D01*
X177326Y687154D01*
X177309Y687144D01*
X177242Y687065D01*
X177171Y686990D01*
X177162Y686972D01*
X177149Y686957D01*
X177110Y686861D01*
X177067Y686767D01*
X177065Y686747D01*
X177057Y686729D01*
X177039Y686562D01*
X177039Y685038D01*
X177042Y685018D01*
X177040Y684999D01*
X177062Y684897D01*
X177079Y684795D01*
X177088Y684778D01*
X177092Y684758D01*
X177145Y684669D01*
X177194Y684578D01*
X177208Y684564D01*
X177218Y684547D01*
X177297Y684480D01*
X177372Y684409D01*
X177390Y684400D01*
X177405Y684387D01*
X177501Y684348D01*
X177595Y684305D01*
X177615Y684303D01*
X177633Y684295D01*
X177800Y684277D01*
X181357Y684277D01*
X181357Y673862D01*
X181360Y673842D01*
X181358Y673823D01*
X181380Y673721D01*
X181397Y673619D01*
X181406Y673602D01*
X181410Y673582D01*
X181463Y673493D01*
X181512Y673402D01*
X181526Y673388D01*
X181536Y673371D01*
X181615Y673304D01*
X181690Y673233D01*
X181708Y673224D01*
X181723Y673211D01*
X181819Y673172D01*
X181913Y673129D01*
X181933Y673127D01*
X181951Y673119D01*
X182118Y673101D01*
X182881Y673101D01*
X182881Y673099D01*
X182118Y673099D01*
X182098Y673096D01*
X182079Y673098D01*
X181977Y673076D01*
X181875Y673059D01*
X181858Y673050D01*
X181838Y673046D01*
X181749Y672993D01*
X181658Y672944D01*
X181644Y672930D01*
X181627Y672920D01*
X181560Y672841D01*
X181489Y672766D01*
X181480Y672748D01*
X181467Y672733D01*
X181428Y672637D01*
X181385Y672543D01*
X181383Y672523D01*
X181375Y672505D01*
X181357Y672338D01*
X181357Y664209D01*
X177800Y664209D01*
X177780Y664206D01*
X177761Y664208D01*
X177659Y664186D01*
X177557Y664170D01*
X177540Y664160D01*
X177520Y664156D01*
X177431Y664103D01*
X177340Y664054D01*
X177326Y664040D01*
X177309Y664030D01*
X177242Y663951D01*
X177171Y663876D01*
X177162Y663858D01*
X177149Y663843D01*
X177110Y663747D01*
X177067Y663653D01*
X177065Y663633D01*
X177057Y663615D01*
X177039Y663448D01*
X177039Y661161D01*
X114615Y661161D01*
X111370Y664406D01*
X111335Y664432D01*
X111305Y664464D01*
X111235Y664503D01*
X111171Y664550D01*
X111129Y664563D01*
X111090Y664584D01*
X111012Y664599D01*
X110936Y664622D01*
X110892Y664621D01*
X110849Y664629D01*
X110770Y664618D01*
X110690Y664616D01*
X110648Y664601D01*
X110605Y664595D01*
X110472Y664536D01*
X110459Y664531D01*
X110456Y664529D01*
X110451Y664527D01*
X110201Y664382D01*
X109554Y664209D01*
X98043Y664209D01*
X98043Y672338D01*
X98040Y672358D01*
X98042Y672377D01*
X98020Y672479D01*
X98003Y672581D01*
X97994Y672598D01*
X97990Y672618D01*
X97937Y672707D01*
X97888Y672798D01*
X97874Y672812D01*
X97864Y672829D01*
X97785Y672896D01*
X97710Y672967D01*
X97692Y672976D01*
X97677Y672989D01*
X97581Y673028D01*
X97487Y673071D01*
X97467Y673073D01*
X97449Y673081D01*
X97282Y673099D01*
X95758Y673099D01*
X95738Y673096D01*
X95719Y673098D01*
X95617Y673076D01*
X95515Y673059D01*
X95498Y673050D01*
X95478Y673046D01*
X95389Y672993D01*
X95298Y672944D01*
X95284Y672930D01*
X95267Y672920D01*
X95200Y672841D01*
X95129Y672766D01*
X95120Y672748D01*
X95107Y672733D01*
X95068Y672637D01*
X95025Y672543D01*
X95023Y672523D01*
X95015Y672505D01*
X94997Y672338D01*
X94997Y664209D01*
X88900Y664209D01*
X88880Y664206D01*
X88861Y664208D01*
X88759Y664186D01*
X88657Y664170D01*
X88640Y664160D01*
X88620Y664156D01*
X88531Y664103D01*
X88440Y664054D01*
X88426Y664040D01*
X88409Y664030D01*
X88342Y663951D01*
X88271Y663876D01*
X88262Y663858D01*
X88249Y663843D01*
X88210Y663747D01*
X88167Y663653D01*
X88165Y663633D01*
X88157Y663615D01*
X88139Y663448D01*
X88139Y596900D01*
X88142Y596880D01*
X88140Y596861D01*
X88162Y596759D01*
X88179Y596657D01*
X88188Y596640D01*
X88192Y596620D01*
X88245Y596531D01*
X88294Y596440D01*
X88308Y596426D01*
X88318Y596409D01*
X88397Y596342D01*
X88472Y596271D01*
X88490Y596262D01*
X88505Y596249D01*
X88601Y596210D01*
X88695Y596167D01*
X88715Y596165D01*
X88733Y596157D01*
X88900Y596139D01*
X203200Y596139D01*
X203220Y596142D01*
G37*
%LPC*%
G36*
X276923Y692523D02*
X276923Y692523D01*
X276923Y711013D01*
X279318Y710698D01*
X281856Y710018D01*
X284283Y709013D01*
X286558Y707699D01*
X288642Y706100D01*
X290500Y704242D01*
X292099Y702158D01*
X293413Y699883D01*
X294418Y697456D01*
X295098Y694918D01*
X295413Y692523D01*
X276923Y692523D01*
G37*
%LPD*%
%LPC*%
G36*
X255387Y692523D02*
X255387Y692523D01*
X255702Y694918D01*
X256382Y697456D01*
X257387Y699883D01*
X258701Y702158D01*
X260300Y704242D01*
X262158Y706100D01*
X264242Y707699D01*
X266517Y709013D01*
X268944Y710018D01*
X271482Y710698D01*
X273877Y711013D01*
X273877Y692523D01*
X255387Y692523D01*
G37*
%LPD*%
%LPC*%
G36*
X276923Y689477D02*
X276923Y689477D01*
X295413Y689477D01*
X295098Y687082D01*
X294418Y684544D01*
X293413Y682117D01*
X292099Y679842D01*
X290500Y677758D01*
X288642Y675900D01*
X286558Y674301D01*
X284283Y672987D01*
X281856Y671982D01*
X279318Y671302D01*
X276923Y670987D01*
X276923Y689477D01*
G37*
%LPD*%
%LPC*%
G36*
X271482Y671302D02*
X271482Y671302D01*
X268944Y671982D01*
X266517Y672987D01*
X264242Y674301D01*
X262158Y675900D01*
X260300Y677758D01*
X258701Y679842D01*
X257387Y682117D01*
X256382Y684544D01*
X255702Y687082D01*
X255387Y689477D01*
X273877Y689477D01*
X273877Y670987D01*
X271482Y671302D01*
G37*
%LPD*%
%LPC*%
G36*
X184403Y725423D02*
X184403Y725423D01*
X184403Y735077D01*
X198121Y735077D01*
X198121Y725423D01*
X184403Y725423D01*
G37*
%LPD*%
%LPC*%
G36*
X184403Y712723D02*
X184403Y712723D01*
X184403Y722377D01*
X198121Y722377D01*
X198121Y712723D01*
X184403Y712723D01*
G37*
%LPD*%
%LPC*%
G36*
X184403Y700023D02*
X184403Y700023D01*
X184403Y709677D01*
X198121Y709677D01*
X198121Y700023D01*
X184403Y700023D01*
G37*
%LPD*%
%LPC*%
G36*
X184403Y687323D02*
X184403Y687323D01*
X184403Y696977D01*
X198121Y696977D01*
X198121Y687323D01*
X184403Y687323D01*
G37*
%LPD*%
%LPC*%
G36*
X184403Y674623D02*
X184403Y674623D01*
X184403Y684277D01*
X198121Y684277D01*
X198121Y674623D01*
X184403Y674623D01*
G37*
%LPD*%
%LPC*%
G36*
X184403Y671577D02*
X184403Y671577D01*
X198121Y671577D01*
X198121Y666416D01*
X197948Y665769D01*
X197613Y665190D01*
X197140Y664717D01*
X196561Y664382D01*
X195914Y664209D01*
X184403Y664209D01*
X184403Y671577D01*
G37*
%LPD*%
G36*
X97302Y673104D02*
X97302Y673104D01*
X97321Y673102D01*
X97423Y673124D01*
X97525Y673141D01*
X97542Y673150D01*
X97562Y673154D01*
X97651Y673207D01*
X97742Y673256D01*
X97756Y673270D01*
X97773Y673280D01*
X97840Y673359D01*
X97911Y673434D01*
X97920Y673452D01*
X97933Y673467D01*
X97972Y673563D01*
X98015Y673657D01*
X98017Y673677D01*
X98025Y673695D01*
X98043Y673862D01*
X98043Y684277D01*
X101600Y684277D01*
X101620Y684280D01*
X101639Y684278D01*
X101741Y684300D01*
X101843Y684317D01*
X101860Y684326D01*
X101880Y684330D01*
X101969Y684383D01*
X102060Y684432D01*
X102074Y684446D01*
X102091Y684456D01*
X102158Y684535D01*
X102230Y684610D01*
X102238Y684628D01*
X102251Y684643D01*
X102290Y684739D01*
X102333Y684833D01*
X102335Y684853D01*
X102343Y684871D01*
X102361Y685038D01*
X102361Y685800D01*
X102358Y685820D01*
X102360Y685839D01*
X102338Y685941D01*
X102322Y686043D01*
X102312Y686060D01*
X102308Y686080D01*
X102255Y686169D01*
X102206Y686260D01*
X102192Y686274D01*
X102182Y686291D01*
X102103Y686358D01*
X102028Y686430D01*
X102010Y686438D01*
X101995Y686451D01*
X101899Y686490D01*
X101805Y686533D01*
X101785Y686535D01*
X101767Y686543D01*
X101600Y686561D01*
X97282Y686561D01*
X97262Y686558D01*
X97243Y686560D01*
X97141Y686538D01*
X97039Y686522D01*
X97022Y686512D01*
X97002Y686508D01*
X96913Y686455D01*
X96822Y686406D01*
X96808Y686392D01*
X96791Y686382D01*
X96724Y686303D01*
X96653Y686228D01*
X96644Y686210D01*
X96631Y686195D01*
X96592Y686099D01*
X96549Y686005D01*
X96547Y685985D01*
X96539Y685967D01*
X96521Y685800D01*
X96521Y685799D01*
X95758Y685799D01*
X95738Y685796D01*
X95719Y685798D01*
X95617Y685776D01*
X95515Y685759D01*
X95498Y685750D01*
X95478Y685746D01*
X95389Y685693D01*
X95298Y685644D01*
X95284Y685630D01*
X95267Y685620D01*
X95200Y685541D01*
X95129Y685466D01*
X95120Y685448D01*
X95107Y685433D01*
X95068Y685337D01*
X95025Y685243D01*
X95023Y685223D01*
X95015Y685205D01*
X94997Y685038D01*
X94997Y673862D01*
X95000Y673842D01*
X94998Y673823D01*
X95020Y673721D01*
X95037Y673619D01*
X95046Y673602D01*
X95050Y673582D01*
X95103Y673493D01*
X95152Y673402D01*
X95166Y673388D01*
X95176Y673371D01*
X95255Y673304D01*
X95330Y673233D01*
X95348Y673224D01*
X95363Y673211D01*
X95459Y673172D01*
X95553Y673129D01*
X95573Y673127D01*
X95591Y673119D01*
X95758Y673101D01*
X97282Y673101D01*
X97302Y673104D01*
G37*
%LPC*%
G36*
X275399Y690999D02*
X275399Y690999D01*
X275399Y691001D01*
X275401Y691001D01*
X275401Y690999D01*
X275399Y690999D01*
G37*
%LPD*%
%LPC*%
G36*
X182879Y698499D02*
X182879Y698499D01*
X182879Y698501D01*
X182881Y698501D01*
X182881Y698499D01*
X182879Y698499D01*
G37*
%LPD*%
%LPC*%
G36*
X182879Y685799D02*
X182879Y685799D01*
X182879Y685801D01*
X182881Y685801D01*
X182881Y685799D01*
X182879Y685799D01*
G37*
%LPD*%
D10*
X566500Y21750D03*
X566500Y41750D03*
X586500Y21750D03*
X586500Y41750D03*
X606500Y21750D03*
X606500Y41750D03*
X626500Y21750D03*
X626500Y41750D03*
X646500Y21750D03*
X646500Y41750D03*
X666500Y21750D03*
X666500Y41750D03*
X686500Y21750D03*
X686500Y41750D03*
X706500Y21750D03*
X706500Y41750D03*
X726500Y21750D03*
X726500Y41750D03*
X746500Y21750D03*
X746500Y41750D03*
D11*
X798119Y635000D03*
X548081Y635000D03*
D12*
X721029Y609590D03*
X698118Y609590D03*
X675208Y609590D03*
X652297Y609590D03*
X629386Y609590D03*
X712571Y635000D03*
X689660Y635000D03*
X666750Y635000D03*
X643839Y635000D03*
X620928Y635000D03*
X721029Y660411D03*
X698118Y660411D03*
X675208Y660411D03*
X652297Y660411D03*
X629386Y660411D03*
D13*
X812800Y330200D03*
X812800Y406400D03*
X774700Y330200D03*
X774700Y406400D03*
X736600Y330200D03*
X736600Y406400D03*
X698500Y330200D03*
X698500Y406400D03*
X660400Y330200D03*
X660400Y406400D03*
X622300Y330200D03*
X622300Y406400D03*
X584200Y330200D03*
X584200Y406400D03*
X546100Y330200D03*
X546100Y406400D03*
X508000Y330200D03*
X508000Y406400D03*
X469900Y330200D03*
X469900Y406400D03*
X431800Y330200D03*
X431800Y406400D03*
X393700Y330200D03*
X393700Y406400D03*
D14*
X410900Y691000D03*
X275400Y691000D03*
X342900Y699000D03*
D15*
X355900Y661000D03*
X329900Y661000D03*
X308900Y661000D03*
X376900Y661000D03*
X376900Y636000D03*
X308900Y636500D03*
D16*
X355600Y579120D02*
X355600Y563880D01*
X381000Y563880D02*
X381000Y579120D01*
X114300Y566420D02*
X114300Y551180D01*
X139700Y551180D02*
X139700Y566420D01*
X165100Y566420D02*
X165100Y551180D01*
D17*
X114300Y311404D02*
X114300Y298196D01*
X139700Y298196D02*
X139700Y311404D01*
X266700Y311404D02*
X266700Y298196D01*
X292100Y298196D02*
X292100Y311404D01*
X165100Y311404D02*
X165100Y298196D01*
X190500Y298196D02*
X190500Y311404D01*
X241300Y311404D02*
X241300Y298196D01*
X215900Y298196D02*
X215900Y311404D01*
X317500Y311404D02*
X317500Y298196D01*
X342900Y298196D02*
X342900Y311404D01*
X342900Y374396D02*
X342900Y387604D01*
X317500Y387604D02*
X317500Y374396D01*
X292100Y374396D02*
X292100Y387604D01*
X266700Y387604D02*
X266700Y374396D01*
X241300Y374396D02*
X241300Y387604D01*
X215900Y387604D02*
X215900Y374396D01*
X190500Y374396D02*
X190500Y387604D01*
X165100Y387604D02*
X165100Y374396D01*
X139700Y374396D02*
X139700Y387604D01*
X114300Y387604D02*
X114300Y374396D01*
D16*
X355600Y474980D02*
X355600Y490220D01*
X381000Y490220D02*
X381000Y474980D01*
D18*
X215900Y571500D03*
X292100Y571500D03*
D19*
X101800Y482600D03*
D20*
X126800Y482600D03*
D19*
X216100Y482600D03*
D20*
X241100Y482600D03*
D21*
X163830Y431800D03*
X191770Y431800D03*
D10*
X100000Y21750D03*
X100000Y41750D03*
X120000Y21750D03*
X120000Y41750D03*
X140000Y21750D03*
X140000Y41750D03*
X160000Y21750D03*
X160000Y41750D03*
X180000Y21750D03*
X180000Y41750D03*
X200000Y21750D03*
X200000Y41750D03*
X220000Y21750D03*
X220000Y41750D03*
X240000Y21750D03*
X240000Y41750D03*
X260000Y21750D03*
X260000Y41750D03*
X280000Y21750D03*
X280000Y41750D03*
D16*
X114300Y157480D02*
X114300Y172720D01*
X139700Y172720D02*
X139700Y157480D01*
X165100Y157480D02*
X165100Y172720D01*
X190500Y172720D02*
X190500Y157480D01*
X215900Y157480D02*
X215900Y172720D01*
X241300Y172720D02*
X241300Y157480D01*
X266700Y157480D02*
X266700Y172720D01*
X292100Y172720D02*
X292100Y157480D01*
X317500Y157480D02*
X317500Y172720D01*
X342900Y172720D02*
X342900Y157480D01*
X368300Y157480D02*
X368300Y172720D01*
X393700Y172720D02*
X393700Y157480D01*
X419100Y157480D02*
X419100Y172720D01*
X444500Y172720D02*
X444500Y157480D01*
X469900Y157480D02*
X469900Y172720D01*
X495300Y172720D02*
X495300Y157480D01*
D10*
X333250Y21750D03*
X333250Y41750D03*
X353250Y21750D03*
X353250Y41750D03*
X373250Y21750D03*
X373250Y41750D03*
X393250Y21750D03*
X393250Y41750D03*
X413250Y21750D03*
X413250Y41750D03*
X433250Y21750D03*
X433250Y41750D03*
X453250Y21750D03*
X453250Y41750D03*
X473250Y21750D03*
X473250Y41750D03*
X493250Y21750D03*
X493250Y41750D03*
X513250Y21750D03*
X513250Y41750D03*
D16*
X114300Y190500D02*
X114300Y205740D01*
X139700Y205740D02*
X139700Y190500D01*
X165100Y190500D02*
X165100Y205740D01*
X190500Y205740D02*
X190500Y190500D01*
X215900Y190500D02*
X215900Y205740D01*
X241300Y205740D02*
X241300Y190500D01*
X266700Y190500D02*
X266700Y205740D01*
X292100Y205740D02*
X292100Y190500D01*
X317500Y190500D02*
X317500Y205740D01*
X342900Y205740D02*
X342900Y190500D01*
X368300Y190500D02*
X368300Y205740D01*
X393700Y205740D02*
X393700Y190500D01*
X419100Y190500D02*
X419100Y205740D01*
X444500Y205740D02*
X444500Y190500D01*
X469900Y190500D02*
X469900Y205740D01*
X495300Y205740D02*
X495300Y190500D01*
D21*
X125730Y266700D03*
X153670Y266700D03*
D22*
X96520Y736600D03*
X182880Y736600D03*
X96520Y723900D03*
X96520Y711200D03*
X96520Y698500D03*
X96520Y685800D03*
X96520Y673100D03*
X182880Y698500D03*
X182880Y711200D03*
X182880Y723900D03*
X182880Y685800D03*
X182880Y673100D03*
D23*
X190500Y431292D02*
X140208Y381000D01*
X139700Y381000D01*
X190500Y431292D02*
X191770Y431800D01*
X214884Y455676D02*
X214884Y481584D01*
X214884Y455676D02*
X192024Y432816D01*
X214884Y481584D02*
X216100Y482600D01*
X192024Y432816D02*
X191770Y431800D01*
X120396Y41148D02*
X120396Y22860D01*
X120000Y21750D01*
X120396Y41148D02*
X120000Y41750D01*
X114300Y165100D02*
X114300Y198120D01*
X152400Y266700D02*
X114300Y304800D01*
X114300Y228600D02*
X114300Y198120D01*
X114300Y228600D02*
X152400Y266700D01*
X153670Y266700D01*
X138684Y329184D02*
X138684Y381000D01*
X138684Y329184D02*
X114300Y304800D01*
X138684Y381000D02*
X139700Y381000D01*
X720852Y609600D02*
X720852Y626364D01*
X713232Y633984D01*
X720852Y609600D02*
X721029Y609590D01*
X713232Y633984D02*
X712571Y635000D01*
X643128Y635508D02*
X621792Y635508D01*
X620928Y635000D01*
X643128Y635508D02*
X643839Y635000D01*
X644652Y635508D02*
X665988Y635508D01*
X666750Y635000D01*
X644652Y635508D02*
X643839Y635000D01*
X705612Y633984D02*
X711708Y633984D01*
X705612Y633984D02*
X694944Y623316D01*
X678180Y623316D01*
X667512Y633984D01*
X711708Y633984D02*
X712571Y635000D01*
X667512Y633984D02*
X666750Y635000D01*
X620268Y635508D02*
X548640Y635508D01*
X620268Y635508D02*
X620928Y635000D01*
X548640Y635508D02*
X548081Y635000D01*
X728472Y633984D02*
X797052Y633984D01*
X728472Y633984D02*
X720852Y626364D01*
X797052Y633984D02*
X798119Y635000D01*
X307848Y661416D02*
X304800Y661416D01*
X275844Y690372D01*
X307848Y661416D02*
X308900Y661000D01*
X275844Y690372D02*
X275400Y691000D01*
X342900Y694944D02*
X342900Y699000D01*
X342900Y694944D02*
X309372Y661416D01*
X308900Y661000D01*
X345948Y691896D02*
X387096Y691896D01*
X409956Y691896D01*
X345948Y691896D02*
X342900Y694944D01*
X409956Y691896D02*
X410900Y691000D01*
X586740Y41148D02*
X586740Y22860D01*
X586500Y21750D01*
X586740Y41148D02*
X586500Y41750D01*
X353568Y41148D02*
X353568Y22860D01*
X353250Y21750D01*
X353568Y41148D02*
X353250Y41750D01*
X580644Y21336D02*
X585216Y21336D01*
X580644Y21336D02*
X571500Y12192D01*
X522732Y12192D02*
X443484Y12192D01*
X522732Y12192D02*
X571500Y12192D01*
X443484Y12192D02*
X434340Y21336D01*
X585216Y21336D02*
X586500Y21750D01*
X434340Y21336D02*
X433250Y21750D01*
X342900Y304800D02*
X342900Y361188D01*
X381000Y399288D01*
X381000Y482600D01*
X381000Y571500D01*
X522732Y193548D02*
X522732Y12192D01*
X522732Y193548D02*
X411480Y304800D01*
X342900Y304800D01*
X387096Y577596D02*
X387096Y635508D01*
X387096Y691896D01*
X387096Y577596D02*
X381000Y571500D01*
X387096Y635508D02*
X547116Y635508D01*
X548081Y635000D01*
X97536Y699516D02*
X97536Y710184D01*
X97536Y699516D02*
X96520Y698500D01*
X97536Y710184D02*
X96520Y711200D01*
X97536Y697992D02*
X97536Y685800D01*
X97536Y697992D02*
X96520Y698500D01*
X96520Y685800D02*
X97536Y685800D01*
X97536Y723900D02*
X97536Y736092D01*
X97536Y723900D02*
X96520Y723900D01*
X181356Y697992D02*
X182880Y697992D01*
X181356Y697992D02*
X181356Y685800D01*
X182880Y684276D01*
X184404Y685800D01*
X184404Y693420D01*
X185928Y694944D01*
X185928Y696468D01*
X184404Y697992D01*
X184404Y704088D01*
X152400Y736092D01*
X97536Y736092D01*
X182880Y698500D02*
X182880Y697992D01*
X97536Y736092D02*
X96520Y736600D01*
X737616Y406908D02*
X774192Y406908D01*
X737616Y406908D02*
X736600Y406400D01*
X774192Y406908D02*
X774700Y406400D01*
X775716Y406908D02*
X812292Y406908D01*
X812800Y406400D01*
X775716Y406908D02*
X774700Y406400D01*
X736092Y406908D02*
X699516Y406908D01*
X736092Y406908D02*
X736600Y406400D01*
X699516Y406908D02*
X698500Y406400D01*
X583692Y406908D02*
X547116Y406908D01*
X546100Y406400D01*
X583692Y406908D02*
X584200Y406400D01*
X653796Y413004D02*
X653796Y608076D01*
X653796Y413004D02*
X660400Y406400D01*
X653796Y608076D02*
X652297Y609590D01*
X647700Y406908D02*
X623316Y406908D01*
X647700Y406908D02*
X653796Y413004D01*
X623316Y406908D02*
X622300Y406400D01*
X621792Y406908D02*
X585216Y406908D01*
X584200Y406400D01*
X621792Y406908D02*
X622300Y406400D01*
X431292Y406908D02*
X394716Y406908D01*
X393700Y406400D01*
X431292Y406908D02*
X431800Y406400D01*
X669036Y609600D02*
X675132Y609600D01*
X669036Y609600D02*
X656844Y621792D01*
X624840Y621792D01*
X509016Y505968D01*
X509016Y406908D01*
X675132Y609600D02*
X675208Y609590D01*
X509016Y406908D02*
X508000Y406400D01*
X507492Y406908D02*
X470916Y406908D01*
X469900Y406400D01*
X507492Y406908D02*
X508000Y406400D01*
X469392Y406908D02*
X432816Y406908D01*
X431800Y406400D01*
X469392Y406908D02*
X469900Y406400D01*
X726948Y243840D02*
X726948Y42672D01*
X726948Y243840D02*
X812292Y329184D01*
X726948Y42672D02*
X726500Y41750D01*
X812292Y329184D02*
X812800Y330200D01*
X725424Y28956D02*
X725424Y22860D01*
X725424Y28956D02*
X716280Y38100D01*
X716280Y271272D01*
X774192Y329184D01*
X725424Y22860D02*
X726500Y21750D01*
X774192Y329184D02*
X774700Y330200D01*
X707136Y300228D02*
X707136Y42672D01*
X707136Y300228D02*
X736092Y329184D01*
X707136Y42672D02*
X706500Y41750D01*
X736092Y329184D02*
X736600Y330200D01*
X705612Y28956D02*
X705612Y22860D01*
X705612Y28956D02*
X696468Y38100D01*
X696468Y327660D01*
X697992Y329184D01*
X705612Y22860D02*
X706500Y21750D01*
X697992Y329184D02*
X698500Y330200D01*
X685800Y304800D02*
X685800Y42672D01*
X685800Y304800D02*
X660400Y330200D01*
X685800Y42672D02*
X686500Y41750D01*
X685800Y28956D02*
X685800Y22860D01*
X685800Y28956D02*
X676656Y38100D01*
X676656Y275844D01*
X622300Y330200D01*
X685800Y22860D02*
X686500Y21750D01*
X665988Y42672D02*
X665988Y248412D01*
X584200Y330200D01*
X665988Y42672D02*
X666500Y41750D01*
X646176Y42672D02*
X646176Y230124D01*
X546100Y330200D01*
X646176Y42672D02*
X646500Y41750D01*
X626364Y42672D02*
X626364Y211836D01*
X508000Y330200D01*
X626364Y42672D02*
X626500Y41750D01*
X605028Y42672D02*
X605028Y156972D01*
X431800Y330200D01*
X605028Y42672D02*
X606500Y41750D01*
X605028Y28956D02*
X605028Y22860D01*
X605028Y28956D02*
X595884Y38100D01*
X595884Y128016D01*
X393700Y330200D01*
X605028Y22860D02*
X606500Y21750D01*
X166116Y381000D02*
X166116Y387096D01*
X277368Y498348D01*
X277368Y605028D01*
X307848Y635508D01*
X166116Y381000D02*
X165100Y381000D01*
X307848Y635508D02*
X308900Y636500D01*
X190500Y406908D02*
X190500Y381000D01*
X190500Y406908D02*
X280416Y496824D01*
X280416Y594360D01*
X329184Y643128D01*
X329184Y659892D01*
X329900Y661000D01*
X355600Y571500D02*
X292100Y571500D01*
X114300Y558800D02*
X114300Y495300D01*
X126492Y483108D01*
X126800Y482600D01*
X175260Y571500D02*
X215900Y571500D01*
X175260Y571500D02*
X169164Y577596D01*
X132588Y577596D01*
X114300Y559308D01*
X114300Y558800D01*
X163068Y446532D02*
X163068Y432816D01*
X163068Y446532D02*
X128016Y481584D01*
X126800Y482600D01*
X163068Y432816D02*
X163830Y431800D01*
X240792Y483108D02*
X165100Y558800D01*
X240792Y483108D02*
X241100Y482600D01*
X376428Y649224D02*
X376428Y659892D01*
X376428Y649224D02*
X365760Y638556D01*
X365760Y492252D01*
X356616Y483108D01*
X376428Y659892D02*
X376900Y661000D01*
X356616Y483108D02*
X355600Y482600D01*
X100584Y126492D02*
X100584Y42672D01*
X100584Y126492D02*
X138684Y164592D01*
X100584Y42672D02*
X100000Y41750D01*
X138684Y164592D02*
X139700Y165100D01*
X139700Y304800D02*
X144780Y304800D01*
X211836Y237744D01*
X367284Y237744D02*
X452628Y237744D01*
X367284Y237744D02*
X211836Y237744D01*
X452628Y237744D02*
X484632Y205740D01*
X484632Y176784D01*
X495300Y166116D01*
X495300Y165100D01*
X348996Y219456D02*
X341376Y219456D01*
X348996Y219456D02*
X355092Y225552D01*
X364236Y225552D01*
X367284Y228600D01*
X367284Y237744D01*
D24*
X341376Y219456D03*
D23*
X358140Y219456D02*
X420624Y219456D01*
X434340Y205740D01*
X434340Y175260D01*
X444500Y165100D01*
D24*
X358140Y219456D03*
D23*
X377952Y147828D02*
X377952Y143256D01*
X377952Y147828D02*
X394716Y164592D01*
X393700Y165100D01*
D24*
X377952Y143256D03*
D23*
X289560Y121920D02*
X254508Y121920D01*
X289560Y121920D02*
X306324Y138684D01*
X306324Y208788D01*
X313944Y216408D01*
X321564Y216408D01*
X332232Y205740D01*
X332232Y176784D01*
X342900Y166116D01*
X342900Y165100D01*
D24*
X254508Y121920D03*
D23*
X280416Y71628D02*
X280416Y42672D01*
X280416Y71628D02*
X332232Y123444D01*
X387096Y123444D01*
X409956Y100584D01*
X280416Y42672D02*
X280000Y41750D01*
D24*
X409956Y100584D03*
D23*
X246888Y42672D02*
X240792Y42672D01*
X246888Y42672D02*
X368808Y164592D01*
X240792Y42672D02*
X240000Y41750D01*
X368300Y165100D02*
X368808Y164592D01*
X227076Y42672D02*
X220980Y42672D01*
X227076Y42672D02*
X294132Y109728D01*
X295656Y109728D01*
X316992Y131064D01*
X316992Y164592D01*
X220980Y42672D02*
X220000Y41750D01*
X316992Y164592D02*
X317500Y165100D01*
X201168Y96012D02*
X201168Y42672D01*
X201168Y96012D02*
X251460Y146304D01*
X272796Y146304D01*
X291084Y164592D01*
X201168Y42672D02*
X200000Y41750D01*
X291084Y164592D02*
X292100Y165100D01*
X181356Y80772D02*
X181356Y42672D01*
X181356Y80772D02*
X266700Y166116D01*
X181356Y42672D02*
X180000Y41750D01*
X266700Y165100D02*
X266700Y166116D01*
X160020Y108204D02*
X160020Y42672D01*
X160020Y108204D02*
X216408Y164592D01*
X160020Y42672D02*
X160000Y41750D01*
X216408Y164592D02*
X215900Y165100D01*
X452628Y28956D02*
X452628Y22860D01*
X452628Y28956D02*
X443484Y38100D01*
X443484Y45720D01*
X371856Y117348D01*
X452628Y22860D02*
X453250Y21750D01*
D24*
X371856Y117348D03*
D23*
X512064Y126492D02*
X512064Y42672D01*
X512064Y126492D02*
X480060Y158496D01*
X480060Y188976D01*
X470916Y198120D01*
X512064Y42672D02*
X513250Y41750D01*
X470916Y198120D02*
X469900Y198120D01*
X492252Y94488D02*
X492252Y42672D01*
X492252Y94488D02*
X429768Y156972D01*
X429768Y187452D01*
X419100Y198120D01*
X492252Y42672D02*
X493250Y41750D01*
X472440Y42672D02*
X472440Y47244D01*
X382524Y137160D01*
X374904Y137160D01*
X371856Y140208D01*
X371856Y146304D01*
X379476Y153924D01*
X379476Y187452D01*
X368808Y198120D01*
X472440Y42672D02*
X473250Y41750D01*
X368808Y198120D02*
X368300Y198120D01*
X454152Y41148D02*
X460248Y41148D01*
X469392Y32004D01*
X477012Y32004D01*
X483108Y38100D01*
X483108Y79248D01*
X403860Y158496D01*
X403860Y210312D01*
X397764Y216408D01*
X364236Y216408D01*
X353568Y205740D01*
X353568Y153924D01*
X345948Y146304D01*
X339852Y146304D01*
X327660Y158496D01*
X327660Y188976D01*
X318516Y198120D01*
X453250Y41750D02*
X454152Y41148D01*
X318516Y198120D02*
X317500Y198120D01*
X426720Y42672D02*
X432816Y42672D01*
X426720Y42672D02*
X361188Y108204D01*
X326136Y108204D01*
X300228Y141732D02*
X300228Y150876D01*
X303276Y153924D01*
X303276Y187452D01*
X292608Y198120D01*
X432816Y42672D02*
X433250Y41750D01*
X292608Y198120D02*
X292100Y198120D01*
D24*
X326136Y108204D03*
X300228Y141732D03*
D23*
X300228Y231648D02*
X361188Y231648D01*
X300228Y231648D02*
X266700Y198120D01*
D24*
X361188Y231648D03*
D23*
X387096Y21336D02*
X393192Y21336D01*
X387096Y21336D02*
X377952Y12192D01*
X155448Y12192D01*
X149352Y18288D01*
X149352Y25908D01*
X143256Y32004D01*
X135636Y32004D01*
X129540Y38100D01*
X129540Y106680D01*
X179832Y156972D01*
X179832Y210312D01*
X185928Y216408D01*
X222504Y216408D01*
X240792Y198120D01*
X393250Y21750D02*
X393192Y21336D01*
X241300Y198120D02*
X240792Y198120D01*
X385572Y42672D02*
X393192Y42672D01*
X385572Y42672D02*
X329184Y99060D01*
X312420Y99060D01*
X289560Y76200D01*
X289560Y38100D01*
X283464Y32004D01*
X155448Y32004D01*
X149352Y38100D01*
X149352Y102108D01*
X205740Y158496D01*
X205740Y188976D01*
X214884Y198120D01*
X393192Y42672D02*
X393250Y41750D01*
X215900Y198120D02*
X214884Y198120D01*
X371856Y28956D02*
X371856Y22860D01*
X371856Y28956D02*
X362712Y38100D01*
X362712Y45720D01*
X315468Y92964D01*
X292608Y115824D02*
X239268Y115824D01*
X234696Y120396D01*
X371856Y22860D02*
X373250Y21750D01*
D24*
X315468Y92964D03*
X292608Y115824D03*
X234696Y120396D03*
D23*
X193548Y228600D02*
X286512Y228600D01*
X193548Y228600D02*
X166116Y201168D01*
X166116Y198120D01*
X165100Y198120D01*
D24*
X286512Y228600D03*
M02*
