G04 EAGLE Gerber RS-274X export*
G75*
%MOMM*%
%FSLAX34Y34*%
%LPD*%
%INBottom Copper*%
%IPPOS*%
%AMOC8*
5,1,8,0,0,1.08239X$1,22.5*%
G01*
%ADD10C,1.408000*%
%ADD11C,4.216400*%
%ADD12C,1.790700*%
%ADD13C,1.879600*%
%ADD14C,3.500000*%
%ADD15P,1.539592X8X22.500000*%
%ADD16C,1.524000*%
%ADD17C,1.320800*%
%ADD18C,1.700000*%
%ADD19C,1.651000*%
%ADD20R,1.651000X1.651000*%
%ADD21C,2.032000*%
%ADD22C,0.152400*%
%ADD23C,0.756400*%


D10*
X566500Y21750D03*
X566500Y41750D03*
X586500Y21750D03*
X586500Y41750D03*
X606500Y21750D03*
X606500Y41750D03*
X626500Y21750D03*
X626500Y41750D03*
X646500Y21750D03*
X646500Y41750D03*
X666500Y21750D03*
X666500Y41750D03*
X686500Y21750D03*
X686500Y41750D03*
X706500Y21750D03*
X706500Y41750D03*
X726500Y21750D03*
X726500Y41750D03*
X746500Y21750D03*
X746500Y41750D03*
D11*
X798119Y635000D03*
X548081Y635000D03*
D12*
X721029Y609590D03*
X698118Y609590D03*
X675208Y609590D03*
X652297Y609590D03*
X629386Y609590D03*
X712571Y635000D03*
X689660Y635000D03*
X666750Y635000D03*
X643839Y635000D03*
X620928Y635000D03*
X721029Y660411D03*
X698118Y660411D03*
X675208Y660411D03*
X652297Y660411D03*
X629386Y660411D03*
D13*
X812800Y330200D03*
X812800Y406400D03*
X774700Y330200D03*
X774700Y406400D03*
X736600Y330200D03*
X736600Y406400D03*
X698500Y330200D03*
X698500Y406400D03*
X660400Y330200D03*
X660400Y406400D03*
X622300Y330200D03*
X622300Y406400D03*
X584200Y330200D03*
X584200Y406400D03*
X546100Y330200D03*
X546100Y406400D03*
X508000Y330200D03*
X508000Y406400D03*
X469900Y330200D03*
X469900Y406400D03*
X431800Y330200D03*
X431800Y406400D03*
X393700Y330200D03*
X393700Y406400D03*
D14*
X410900Y691000D03*
X275400Y691000D03*
X342900Y699000D03*
D15*
X355900Y661000D03*
X329900Y661000D03*
X308900Y661000D03*
X376900Y661000D03*
X376900Y636000D03*
X308900Y636500D03*
D16*
X355600Y579120D02*
X355600Y563880D01*
X381000Y563880D02*
X381000Y579120D01*
X114300Y566420D02*
X114300Y551180D01*
X139700Y551180D02*
X139700Y566420D01*
X165100Y566420D02*
X165100Y551180D01*
D17*
X114300Y311404D02*
X114300Y298196D01*
X139700Y298196D02*
X139700Y311404D01*
X266700Y311404D02*
X266700Y298196D01*
X292100Y298196D02*
X292100Y311404D01*
X165100Y311404D02*
X165100Y298196D01*
X190500Y298196D02*
X190500Y311404D01*
X241300Y311404D02*
X241300Y298196D01*
X215900Y298196D02*
X215900Y311404D01*
X317500Y311404D02*
X317500Y298196D01*
X342900Y298196D02*
X342900Y311404D01*
X342900Y374396D02*
X342900Y387604D01*
X317500Y387604D02*
X317500Y374396D01*
X292100Y374396D02*
X292100Y387604D01*
X266700Y387604D02*
X266700Y374396D01*
X241300Y374396D02*
X241300Y387604D01*
X215900Y387604D02*
X215900Y374396D01*
X190500Y374396D02*
X190500Y387604D01*
X165100Y387604D02*
X165100Y374396D01*
X139700Y374396D02*
X139700Y387604D01*
X114300Y387604D02*
X114300Y374396D01*
D16*
X355600Y474980D02*
X355600Y490220D01*
X381000Y490220D02*
X381000Y474980D01*
D18*
X215900Y571500D03*
X292100Y571500D03*
D19*
X101800Y482600D03*
D20*
X126800Y482600D03*
D19*
X216100Y482600D03*
D20*
X241100Y482600D03*
D21*
X163830Y431800D03*
X191770Y431800D03*
D10*
X100000Y21750D03*
X100000Y41750D03*
X120000Y21750D03*
X120000Y41750D03*
X140000Y21750D03*
X140000Y41750D03*
X160000Y21750D03*
X160000Y41750D03*
X180000Y21750D03*
X180000Y41750D03*
X200000Y21750D03*
X200000Y41750D03*
X220000Y21750D03*
X220000Y41750D03*
X240000Y21750D03*
X240000Y41750D03*
X260000Y21750D03*
X260000Y41750D03*
X280000Y21750D03*
X280000Y41750D03*
D16*
X114300Y157480D02*
X114300Y172720D01*
X139700Y172720D02*
X139700Y157480D01*
X165100Y157480D02*
X165100Y172720D01*
X190500Y172720D02*
X190500Y157480D01*
X215900Y157480D02*
X215900Y172720D01*
X241300Y172720D02*
X241300Y157480D01*
X266700Y157480D02*
X266700Y172720D01*
X292100Y172720D02*
X292100Y157480D01*
X317500Y157480D02*
X317500Y172720D01*
X342900Y172720D02*
X342900Y157480D01*
X368300Y157480D02*
X368300Y172720D01*
X393700Y172720D02*
X393700Y157480D01*
X419100Y157480D02*
X419100Y172720D01*
X444500Y172720D02*
X444500Y157480D01*
X469900Y157480D02*
X469900Y172720D01*
X495300Y172720D02*
X495300Y157480D01*
D10*
X333250Y21750D03*
X333250Y41750D03*
X353250Y21750D03*
X353250Y41750D03*
X373250Y21750D03*
X373250Y41750D03*
X393250Y21750D03*
X393250Y41750D03*
X413250Y21750D03*
X413250Y41750D03*
X433250Y21750D03*
X433250Y41750D03*
X453250Y21750D03*
X453250Y41750D03*
X473250Y21750D03*
X473250Y41750D03*
X493250Y21750D03*
X493250Y41750D03*
X513250Y21750D03*
X513250Y41750D03*
D16*
X114300Y190500D02*
X114300Y205740D01*
X139700Y205740D02*
X139700Y190500D01*
X165100Y190500D02*
X165100Y205740D01*
X190500Y205740D02*
X190500Y190500D01*
X215900Y190500D02*
X215900Y205740D01*
X241300Y205740D02*
X241300Y190500D01*
X266700Y190500D02*
X266700Y205740D01*
X292100Y205740D02*
X292100Y190500D01*
X317500Y190500D02*
X317500Y205740D01*
X342900Y205740D02*
X342900Y190500D01*
X368300Y190500D02*
X368300Y205740D01*
X393700Y205740D02*
X393700Y190500D01*
X419100Y190500D02*
X419100Y205740D01*
X444500Y205740D02*
X444500Y190500D01*
X469900Y190500D02*
X469900Y205740D01*
X495300Y205740D02*
X495300Y190500D01*
D21*
X125730Y266700D03*
X153670Y266700D03*
D22*
X138684Y519684D02*
X138684Y557784D01*
X138684Y519684D02*
X102108Y483108D01*
X138684Y557784D02*
X139700Y558800D01*
X102108Y483108D02*
X101800Y482600D01*
X138684Y519684D02*
X178308Y519684D01*
X214884Y483108D01*
X216100Y482600D01*
X199644Y22860D02*
X193548Y22860D01*
X184404Y32004D01*
X156972Y32004D01*
X149352Y24384D01*
X149352Y16764D01*
X144780Y12192D01*
X129540Y12192D01*
X120396Y21336D01*
X199644Y22860D02*
X200000Y21750D01*
X120396Y21336D02*
X120000Y21750D01*
X118872Y42672D02*
X118872Y160020D01*
X114300Y164592D01*
X118872Y42672D02*
X120000Y41750D01*
X114300Y164592D02*
X114300Y165100D01*
X426720Y21336D02*
X432816Y21336D01*
X426720Y21336D02*
X417576Y12192D01*
X362712Y12192D01*
X353568Y21336D01*
X432816Y21336D02*
X433250Y21750D01*
X353568Y21336D02*
X353250Y21750D01*
X220980Y481584D02*
X216408Y481584D01*
X220980Y481584D02*
X237744Y464820D01*
X364236Y464820D01*
X381000Y481584D01*
X216408Y481584D02*
X216100Y482600D01*
X381000Y482600D02*
X381000Y481584D01*
X629412Y475488D02*
X629412Y608076D01*
X629412Y475488D02*
X698500Y406400D01*
X629412Y608076D02*
X629386Y609590D01*
X745236Y28956D02*
X745236Y22860D01*
X745236Y28956D02*
X736092Y38100D01*
X736092Y313944D01*
X723900Y326136D01*
X723900Y595884D01*
X733044Y605028D01*
X733044Y614172D01*
X723900Y623316D01*
X707136Y623316D01*
X701040Y629412D01*
X701040Y640080D01*
X681228Y659892D01*
X676656Y659892D01*
X745236Y22860D02*
X746500Y21750D01*
X676656Y659892D02*
X675208Y660411D01*
X746760Y323088D02*
X746760Y42672D01*
X746760Y323088D02*
X748284Y324612D01*
X748284Y615696D01*
X704088Y659892D01*
X699516Y659892D01*
X746760Y42672D02*
X746500Y41750D01*
X699516Y659892D02*
X698118Y660411D01*
X626364Y22860D02*
X618744Y22860D01*
X609600Y32004D01*
X601980Y32004D01*
X595884Y38100D01*
X595884Y204216D01*
X469900Y330200D01*
X626364Y22860D02*
X626500Y21750D01*
X355092Y483108D02*
X242316Y483108D01*
X241100Y482600D01*
X355092Y483108D02*
X355600Y482600D01*
X124968Y313944D02*
X114300Y324612D01*
X124968Y313944D02*
X124968Y266700D01*
X100584Y28956D02*
X100584Y22860D01*
X100584Y28956D02*
X109728Y38100D01*
X109728Y147828D01*
X103632Y153924D01*
X103632Y245364D01*
X124968Y266700D01*
X100584Y22860D02*
X100000Y21750D01*
X124968Y266700D02*
X125730Y266700D01*
X114300Y324612D02*
X114300Y381000D01*
X280416Y28956D02*
X280416Y22860D01*
X280416Y28956D02*
X332232Y80772D01*
X332232Y210312D01*
X341376Y219456D01*
X280416Y22860D02*
X280000Y21750D01*
D23*
X341376Y219456D03*
D22*
X260604Y28956D02*
X260604Y22860D01*
X260604Y28956D02*
X269748Y38100D01*
X269748Y120396D01*
X306324Y156972D01*
X306324Y208788D01*
X323088Y225552D01*
X345948Y225552D01*
X352044Y219456D01*
X358140Y219456D01*
X260604Y22860D02*
X260000Y21750D01*
D23*
X358140Y219456D03*
D22*
X246888Y21336D02*
X240792Y21336D01*
X246888Y21336D02*
X256032Y12192D01*
X284988Y12192D01*
X377952Y105156D01*
X377952Y143256D01*
X240792Y21336D02*
X240000Y21750D01*
D23*
X377952Y143256D03*
D22*
X220980Y28956D02*
X220980Y22860D01*
X220980Y28956D02*
X230124Y38100D01*
X230124Y97536D01*
X254508Y121920D01*
X220980Y22860D02*
X220000Y21750D01*
D23*
X254508Y121920D03*
D22*
X170688Y304800D02*
X165100Y304800D01*
X170688Y304800D02*
X234696Y240792D01*
X423672Y240792D01*
X443484Y220980D02*
X458724Y205740D01*
X443484Y220980D02*
X423672Y240792D01*
X458724Y205740D02*
X458724Y176784D01*
X469392Y166116D01*
X469900Y165100D01*
X409956Y134112D02*
X409956Y100584D01*
X409956Y134112D02*
X434340Y158496D01*
X434340Y211836D01*
X443484Y220980D01*
D23*
X409956Y100584D03*
D22*
X260604Y137160D02*
X260604Y42672D01*
X260604Y137160D02*
X280416Y156972D01*
X280416Y231648D01*
X286512Y237744D01*
X376428Y237744D01*
X408432Y205740D01*
X408432Y176784D01*
X419100Y166116D01*
X260604Y42672D02*
X260000Y41750D01*
X419100Y165100D02*
X419100Y166116D01*
X166116Y21336D02*
X160020Y21336D01*
X166116Y21336D02*
X175260Y12192D01*
X204216Y12192D01*
X210312Y18288D01*
X210312Y86868D01*
X240792Y117348D01*
X240792Y164592D01*
X160000Y21750D02*
X160020Y21336D01*
X240792Y164592D02*
X241300Y165100D01*
X140208Y27432D02*
X140208Y22860D01*
X140208Y27432D02*
X149352Y36576D01*
X149352Y123444D01*
X190500Y164592D01*
X140208Y22860D02*
X140000Y21750D01*
X190500Y164592D02*
X190500Y165100D01*
X140208Y140208D02*
X140208Y42672D01*
X140208Y140208D02*
X165100Y165100D01*
X140208Y42672D02*
X140000Y41750D01*
X333756Y41148D02*
X339852Y41148D01*
X348996Y32004D01*
X457200Y32004D01*
X463296Y25908D01*
X463296Y18288D01*
X469392Y12192D01*
X518160Y12192D01*
X522732Y16764D01*
X522732Y193548D01*
X397764Y318516D01*
X348996Y318516D01*
X345948Y321564D01*
X161544Y321564D01*
X149352Y309372D01*
X149352Y280416D01*
X140208Y271272D01*
X140208Y198120D01*
X333250Y41750D02*
X333756Y41148D01*
X140208Y198120D02*
X139700Y198120D01*
X512064Y28956D02*
X512064Y22860D01*
X512064Y28956D02*
X502920Y38100D01*
X502920Y150876D01*
X505968Y153924D01*
X505968Y187452D01*
X495300Y198120D01*
X512064Y22860D02*
X513250Y21750D01*
X492252Y22860D02*
X492252Y28956D01*
X483108Y38100D01*
X483108Y129540D01*
X455676Y156972D01*
X455676Y187452D01*
X445008Y198120D01*
X492252Y22860D02*
X493250Y21750D01*
X445008Y198120D02*
X444500Y198120D01*
X472440Y28956D02*
X472440Y22860D01*
X472440Y28956D02*
X463296Y38100D01*
X463296Y45720D01*
X414528Y94488D01*
X406908Y94488D01*
X403860Y97536D01*
X403860Y188976D01*
X394716Y198120D01*
X472440Y22860D02*
X473250Y21750D01*
X394716Y198120D02*
X393700Y198120D01*
X371856Y138684D02*
X371856Y117348D01*
X371856Y138684D02*
X353568Y156972D01*
X353568Y187452D01*
X342900Y198120D01*
D23*
X371856Y117348D03*
D22*
X326136Y115824D02*
X326136Y108204D01*
X326136Y115824D02*
X300228Y141732D01*
D23*
X326136Y108204D03*
X300228Y141732D03*
D22*
X413004Y83820D02*
X413004Y42672D01*
X413004Y83820D02*
X387096Y109728D01*
X387096Y149352D01*
X382524Y153924D01*
X382524Y210312D01*
X361188Y231648D01*
X413004Y42672D02*
X413250Y41750D01*
D23*
X361188Y231648D03*
D22*
X292608Y115824D02*
X315468Y92964D01*
X234696Y120396D02*
X234696Y123444D01*
X201168Y156972D01*
X201168Y187452D01*
X190500Y198120D01*
D23*
X315468Y92964D03*
X292608Y115824D03*
X234696Y120396D03*
D22*
X373380Y96012D02*
X373380Y42672D01*
X373380Y96012D02*
X384048Y106680D01*
X384048Y147828D01*
X379476Y152400D01*
X379476Y208788D01*
X362712Y225552D01*
X350520Y225552D01*
X347472Y228600D01*
X286512Y228600D01*
X373380Y42672D02*
X373250Y41750D01*
D23*
X286512Y228600D03*
M02*
