G04 EAGLE Gerber RS-274X export*
G75*
%MOMM*%
%FSLAX34Y34*%
%LPD*%
%IN*%
%IPPOS*%
%AMOC8*
5,1,8,0,0,1.08239X$1,22.5*%
G01*
%ADD10C,0.254000*%


D10*
X69850Y0D02*
X846500Y0D01*
X846500Y754126D01*
X69850Y754126D01*
X69850Y0D01*
X156210Y708120D02*
X156139Y707041D01*
X155998Y705969D01*
X155787Y704909D01*
X155508Y703865D01*
X155160Y702841D01*
X154746Y701843D01*
X154268Y700873D01*
X153728Y699937D01*
X153127Y699038D01*
X152469Y698181D01*
X151757Y697368D01*
X150992Y696604D01*
X150179Y695891D01*
X149322Y695233D01*
X148423Y694632D01*
X147487Y694092D01*
X146517Y693614D01*
X145519Y693200D01*
X144495Y692852D01*
X143451Y692573D01*
X142391Y692362D01*
X141319Y692221D01*
X140240Y692150D01*
X139160Y692150D01*
X138081Y692221D01*
X137009Y692362D01*
X135949Y692573D01*
X134905Y692852D01*
X133881Y693200D01*
X132883Y693614D01*
X131913Y694092D01*
X130977Y694632D01*
X130078Y695233D01*
X129221Y695891D01*
X128408Y696604D01*
X127644Y697368D01*
X126931Y698181D01*
X126273Y699038D01*
X125672Y699937D01*
X125132Y700873D01*
X124654Y701843D01*
X124240Y702841D01*
X123892Y703865D01*
X123613Y704909D01*
X123402Y705969D01*
X123261Y707041D01*
X123190Y708120D01*
X123190Y709200D01*
X123261Y710279D01*
X123402Y711351D01*
X123613Y712411D01*
X123892Y713455D01*
X124240Y714479D01*
X124654Y715477D01*
X125132Y716447D01*
X125672Y717383D01*
X126273Y718282D01*
X126931Y719139D01*
X127644Y719952D01*
X128408Y720717D01*
X129221Y721429D01*
X130078Y722087D01*
X130977Y722688D01*
X131913Y723228D01*
X132883Y723706D01*
X133881Y724120D01*
X134905Y724468D01*
X135949Y724747D01*
X137009Y724958D01*
X138081Y725099D01*
X139160Y725170D01*
X140240Y725170D01*
X141319Y725099D01*
X142391Y724958D01*
X143451Y724747D01*
X144495Y724468D01*
X145519Y724120D01*
X146517Y723706D01*
X147487Y723228D01*
X148423Y722688D01*
X149322Y722087D01*
X150179Y721429D01*
X150992Y720717D01*
X151757Y719952D01*
X152469Y719139D01*
X153127Y718282D01*
X153728Y717383D01*
X154268Y716447D01*
X154746Y715477D01*
X155160Y714479D01*
X155508Y713455D01*
X155787Y712411D01*
X155998Y711351D01*
X156139Y710279D01*
X156210Y709200D01*
X156210Y708120D01*
M02*
