G04 EAGLE Gerber RS-274X export*
G75*
%MOMM*%
%FSLAX34Y34*%
%LPD*%
%INSilkscreen Bottom*%
%IPPOS*%
%AMOC8*
5,1,8,0,0,1.08239X$1,22.5*%
G01*
%ADD10C,0.127000*%


D10*
X827405Y364248D02*
X822579Y364248D01*
X822579Y365589D01*
X822581Y365660D01*
X822587Y365732D01*
X822596Y365802D01*
X822609Y365872D01*
X822626Y365942D01*
X822647Y366010D01*
X822671Y366077D01*
X822699Y366143D01*
X822730Y366207D01*
X822765Y366270D01*
X822803Y366330D01*
X822844Y366389D01*
X822888Y366445D01*
X822935Y366499D01*
X822984Y366550D01*
X823037Y366598D01*
X823092Y366644D01*
X823149Y366686D01*
X823209Y366726D01*
X823270Y366762D01*
X823334Y366795D01*
X823399Y366824D01*
X823465Y366850D01*
X823533Y366873D01*
X823602Y366892D01*
X823672Y366907D01*
X823742Y366918D01*
X823813Y366926D01*
X823884Y366930D01*
X823956Y366930D01*
X824027Y366926D01*
X824098Y366918D01*
X824168Y366907D01*
X824238Y366892D01*
X824307Y366873D01*
X824375Y366850D01*
X824441Y366824D01*
X824506Y366795D01*
X824570Y366762D01*
X824631Y366726D01*
X824691Y366686D01*
X824748Y366644D01*
X824803Y366598D01*
X824856Y366550D01*
X824905Y366499D01*
X824952Y366445D01*
X824996Y366389D01*
X825037Y366330D01*
X825075Y366270D01*
X825110Y366207D01*
X825141Y366143D01*
X825169Y366077D01*
X825193Y366010D01*
X825214Y365942D01*
X825231Y365872D01*
X825244Y365802D01*
X825253Y365732D01*
X825259Y365660D01*
X825261Y365589D01*
X825260Y365589D02*
X825260Y364248D01*
X825260Y365857D02*
X827405Y366929D01*
X823651Y369671D02*
X822579Y371011D01*
X827405Y371011D01*
X827405Y369671D02*
X827405Y372352D01*
X789305Y364248D02*
X784479Y364248D01*
X784479Y365589D01*
X784481Y365660D01*
X784487Y365732D01*
X784496Y365802D01*
X784509Y365872D01*
X784526Y365942D01*
X784547Y366010D01*
X784571Y366077D01*
X784599Y366143D01*
X784630Y366207D01*
X784665Y366270D01*
X784703Y366330D01*
X784744Y366389D01*
X784788Y366445D01*
X784835Y366499D01*
X784884Y366550D01*
X784937Y366598D01*
X784992Y366644D01*
X785049Y366686D01*
X785109Y366726D01*
X785170Y366762D01*
X785234Y366795D01*
X785299Y366824D01*
X785365Y366850D01*
X785433Y366873D01*
X785502Y366892D01*
X785572Y366907D01*
X785642Y366918D01*
X785713Y366926D01*
X785784Y366930D01*
X785856Y366930D01*
X785927Y366926D01*
X785998Y366918D01*
X786068Y366907D01*
X786138Y366892D01*
X786207Y366873D01*
X786275Y366850D01*
X786341Y366824D01*
X786406Y366795D01*
X786470Y366762D01*
X786531Y366726D01*
X786591Y366686D01*
X786648Y366644D01*
X786703Y366598D01*
X786756Y366550D01*
X786805Y366499D01*
X786852Y366445D01*
X786896Y366389D01*
X786937Y366330D01*
X786975Y366270D01*
X787010Y366207D01*
X787041Y366143D01*
X787069Y366077D01*
X787093Y366010D01*
X787114Y365942D01*
X787131Y365872D01*
X787144Y365802D01*
X787153Y365732D01*
X787159Y365660D01*
X787161Y365589D01*
X787160Y365589D02*
X787160Y364248D01*
X787160Y365857D02*
X789305Y366929D01*
X784479Y371145D02*
X784481Y371213D01*
X784487Y371280D01*
X784496Y371347D01*
X784509Y371414D01*
X784526Y371479D01*
X784547Y371544D01*
X784571Y371607D01*
X784599Y371669D01*
X784630Y371729D01*
X784664Y371787D01*
X784702Y371843D01*
X784742Y371898D01*
X784786Y371949D01*
X784833Y371998D01*
X784882Y372045D01*
X784933Y372089D01*
X784988Y372129D01*
X785044Y372167D01*
X785102Y372201D01*
X785162Y372232D01*
X785224Y372260D01*
X785287Y372284D01*
X785352Y372305D01*
X785417Y372322D01*
X785484Y372335D01*
X785551Y372344D01*
X785618Y372350D01*
X785686Y372352D01*
X784479Y371145D02*
X784481Y371067D01*
X784487Y370989D01*
X784497Y370912D01*
X784510Y370835D01*
X784528Y370759D01*
X784549Y370684D01*
X784574Y370610D01*
X784603Y370538D01*
X784635Y370467D01*
X784671Y370398D01*
X784710Y370330D01*
X784753Y370265D01*
X784799Y370202D01*
X784848Y370141D01*
X784900Y370083D01*
X784955Y370028D01*
X785012Y369975D01*
X785072Y369926D01*
X785135Y369879D01*
X785200Y369836D01*
X785266Y369796D01*
X785335Y369759D01*
X785406Y369726D01*
X785478Y369696D01*
X785552Y369670D01*
X786624Y371950D02*
X786575Y371999D01*
X786523Y372046D01*
X786468Y372089D01*
X786411Y372130D01*
X786352Y372168D01*
X786291Y372202D01*
X786228Y372233D01*
X786164Y372261D01*
X786098Y372285D01*
X786032Y372305D01*
X785964Y372322D01*
X785895Y372335D01*
X785826Y372344D01*
X785756Y372350D01*
X785686Y372352D01*
X786624Y371950D02*
X789305Y369671D01*
X789305Y372352D01*
X751205Y364248D02*
X746379Y364248D01*
X746379Y365589D01*
X746381Y365660D01*
X746387Y365732D01*
X746396Y365802D01*
X746409Y365872D01*
X746426Y365942D01*
X746447Y366010D01*
X746471Y366077D01*
X746499Y366143D01*
X746530Y366207D01*
X746565Y366270D01*
X746603Y366330D01*
X746644Y366389D01*
X746688Y366445D01*
X746735Y366499D01*
X746784Y366550D01*
X746837Y366598D01*
X746892Y366644D01*
X746949Y366686D01*
X747009Y366726D01*
X747070Y366762D01*
X747134Y366795D01*
X747199Y366824D01*
X747265Y366850D01*
X747333Y366873D01*
X747402Y366892D01*
X747472Y366907D01*
X747542Y366918D01*
X747613Y366926D01*
X747684Y366930D01*
X747756Y366930D01*
X747827Y366926D01*
X747898Y366918D01*
X747968Y366907D01*
X748038Y366892D01*
X748107Y366873D01*
X748175Y366850D01*
X748241Y366824D01*
X748306Y366795D01*
X748370Y366762D01*
X748431Y366726D01*
X748491Y366686D01*
X748548Y366644D01*
X748603Y366598D01*
X748656Y366550D01*
X748705Y366499D01*
X748752Y366445D01*
X748796Y366389D01*
X748837Y366330D01*
X748875Y366270D01*
X748910Y366207D01*
X748941Y366143D01*
X748969Y366077D01*
X748993Y366010D01*
X749014Y365942D01*
X749031Y365872D01*
X749044Y365802D01*
X749053Y365732D01*
X749059Y365660D01*
X749061Y365589D01*
X749060Y365589D02*
X749060Y364248D01*
X749060Y365857D02*
X751205Y366929D01*
X751205Y369671D02*
X751205Y371011D01*
X751203Y371082D01*
X751197Y371154D01*
X751188Y371224D01*
X751175Y371294D01*
X751158Y371364D01*
X751137Y371432D01*
X751113Y371499D01*
X751085Y371565D01*
X751054Y371629D01*
X751019Y371692D01*
X750981Y371752D01*
X750940Y371811D01*
X750896Y371867D01*
X750849Y371921D01*
X750800Y371972D01*
X750747Y372020D01*
X750692Y372066D01*
X750635Y372108D01*
X750575Y372148D01*
X750514Y372184D01*
X750450Y372217D01*
X750385Y372246D01*
X750319Y372272D01*
X750251Y372295D01*
X750182Y372314D01*
X750112Y372329D01*
X750042Y372340D01*
X749971Y372348D01*
X749900Y372352D01*
X749828Y372352D01*
X749757Y372348D01*
X749686Y372340D01*
X749616Y372329D01*
X749546Y372314D01*
X749477Y372295D01*
X749409Y372272D01*
X749343Y372246D01*
X749278Y372217D01*
X749214Y372184D01*
X749153Y372148D01*
X749093Y372108D01*
X749036Y372066D01*
X748981Y372020D01*
X748928Y371972D01*
X748879Y371921D01*
X748832Y371867D01*
X748788Y371811D01*
X748747Y371752D01*
X748709Y371692D01*
X748674Y371629D01*
X748643Y371565D01*
X748615Y371499D01*
X748591Y371432D01*
X748570Y371364D01*
X748553Y371294D01*
X748540Y371224D01*
X748531Y371154D01*
X748525Y371082D01*
X748523Y371011D01*
X746379Y371279D02*
X746379Y369671D01*
X746379Y371279D02*
X746381Y371344D01*
X746387Y371408D01*
X746397Y371472D01*
X746410Y371536D01*
X746428Y371598D01*
X746449Y371659D01*
X746473Y371719D01*
X746502Y371777D01*
X746534Y371834D01*
X746569Y371888D01*
X746607Y371940D01*
X746649Y371990D01*
X746693Y372037D01*
X746740Y372081D01*
X746790Y372123D01*
X746842Y372161D01*
X746896Y372196D01*
X746953Y372228D01*
X747011Y372257D01*
X747071Y372281D01*
X747132Y372302D01*
X747194Y372320D01*
X747258Y372333D01*
X747322Y372343D01*
X747386Y372349D01*
X747451Y372351D01*
X747516Y372349D01*
X747580Y372343D01*
X747644Y372333D01*
X747708Y372320D01*
X747770Y372302D01*
X747831Y372281D01*
X747891Y372257D01*
X747949Y372228D01*
X748006Y372196D01*
X748060Y372161D01*
X748112Y372123D01*
X748162Y372081D01*
X748209Y372037D01*
X748253Y371990D01*
X748295Y371940D01*
X748333Y371888D01*
X748368Y371834D01*
X748400Y371777D01*
X748429Y371719D01*
X748453Y371659D01*
X748474Y371598D01*
X748492Y371536D01*
X748505Y371472D01*
X748515Y371408D01*
X748521Y371344D01*
X748523Y371279D01*
X748524Y371279D02*
X748524Y370207D01*
X713105Y364248D02*
X708279Y364248D01*
X708279Y365589D01*
X708281Y365660D01*
X708287Y365732D01*
X708296Y365802D01*
X708309Y365872D01*
X708326Y365942D01*
X708347Y366010D01*
X708371Y366077D01*
X708399Y366143D01*
X708430Y366207D01*
X708465Y366270D01*
X708503Y366330D01*
X708544Y366389D01*
X708588Y366445D01*
X708635Y366499D01*
X708684Y366550D01*
X708737Y366598D01*
X708792Y366644D01*
X708849Y366686D01*
X708909Y366726D01*
X708970Y366762D01*
X709034Y366795D01*
X709099Y366824D01*
X709165Y366850D01*
X709233Y366873D01*
X709302Y366892D01*
X709372Y366907D01*
X709442Y366918D01*
X709513Y366926D01*
X709584Y366930D01*
X709656Y366930D01*
X709727Y366926D01*
X709798Y366918D01*
X709868Y366907D01*
X709938Y366892D01*
X710007Y366873D01*
X710075Y366850D01*
X710141Y366824D01*
X710206Y366795D01*
X710270Y366762D01*
X710331Y366726D01*
X710391Y366686D01*
X710448Y366644D01*
X710503Y366598D01*
X710556Y366550D01*
X710605Y366499D01*
X710652Y366445D01*
X710696Y366389D01*
X710737Y366330D01*
X710775Y366270D01*
X710810Y366207D01*
X710841Y366143D01*
X710869Y366077D01*
X710893Y366010D01*
X710914Y365942D01*
X710931Y365872D01*
X710944Y365802D01*
X710953Y365732D01*
X710959Y365660D01*
X710961Y365589D01*
X710960Y365589D02*
X710960Y364248D01*
X710960Y365857D02*
X713105Y366929D01*
X712033Y369671D02*
X708279Y370743D01*
X712033Y369671D02*
X712033Y372352D01*
X710960Y371548D02*
X713105Y371548D01*
X675005Y364248D02*
X670179Y364248D01*
X670179Y365589D01*
X670181Y365660D01*
X670187Y365732D01*
X670196Y365802D01*
X670209Y365872D01*
X670226Y365942D01*
X670247Y366010D01*
X670271Y366077D01*
X670299Y366143D01*
X670330Y366207D01*
X670365Y366270D01*
X670403Y366330D01*
X670444Y366389D01*
X670488Y366445D01*
X670535Y366499D01*
X670584Y366550D01*
X670637Y366598D01*
X670692Y366644D01*
X670749Y366686D01*
X670809Y366726D01*
X670870Y366762D01*
X670934Y366795D01*
X670999Y366824D01*
X671065Y366850D01*
X671133Y366873D01*
X671202Y366892D01*
X671272Y366907D01*
X671342Y366918D01*
X671413Y366926D01*
X671484Y366930D01*
X671556Y366930D01*
X671627Y366926D01*
X671698Y366918D01*
X671768Y366907D01*
X671838Y366892D01*
X671907Y366873D01*
X671975Y366850D01*
X672041Y366824D01*
X672106Y366795D01*
X672170Y366762D01*
X672231Y366726D01*
X672291Y366686D01*
X672348Y366644D01*
X672403Y366598D01*
X672456Y366550D01*
X672505Y366499D01*
X672552Y366445D01*
X672596Y366389D01*
X672637Y366330D01*
X672675Y366270D01*
X672710Y366207D01*
X672741Y366143D01*
X672769Y366077D01*
X672793Y366010D01*
X672814Y365942D01*
X672831Y365872D01*
X672844Y365802D01*
X672853Y365732D01*
X672859Y365660D01*
X672861Y365589D01*
X672860Y365589D02*
X672860Y364248D01*
X672860Y365857D02*
X675005Y366929D01*
X675005Y369671D02*
X675005Y371279D01*
X675003Y371344D01*
X674997Y371408D01*
X674987Y371472D01*
X674974Y371536D01*
X674956Y371598D01*
X674935Y371659D01*
X674911Y371719D01*
X674882Y371777D01*
X674850Y371834D01*
X674815Y371888D01*
X674777Y371940D01*
X674735Y371990D01*
X674691Y372037D01*
X674644Y372081D01*
X674594Y372123D01*
X674542Y372161D01*
X674488Y372196D01*
X674431Y372228D01*
X674373Y372257D01*
X674313Y372281D01*
X674252Y372302D01*
X674190Y372320D01*
X674126Y372333D01*
X674062Y372343D01*
X673998Y372349D01*
X673933Y372351D01*
X673933Y372352D02*
X673396Y372352D01*
X673396Y372351D02*
X673331Y372349D01*
X673267Y372343D01*
X673203Y372333D01*
X673139Y372320D01*
X673077Y372302D01*
X673016Y372281D01*
X672956Y372257D01*
X672898Y372228D01*
X672841Y372196D01*
X672787Y372161D01*
X672735Y372123D01*
X672685Y372081D01*
X672638Y372037D01*
X672594Y371990D01*
X672552Y371940D01*
X672514Y371888D01*
X672479Y371834D01*
X672447Y371777D01*
X672418Y371719D01*
X672394Y371659D01*
X672373Y371598D01*
X672355Y371536D01*
X672342Y371472D01*
X672332Y371408D01*
X672326Y371344D01*
X672324Y371279D01*
X672324Y369671D01*
X670179Y369671D01*
X670179Y372352D01*
X636905Y364248D02*
X632079Y364248D01*
X632079Y365589D01*
X632081Y365660D01*
X632087Y365732D01*
X632096Y365802D01*
X632109Y365872D01*
X632126Y365942D01*
X632147Y366010D01*
X632171Y366077D01*
X632199Y366143D01*
X632230Y366207D01*
X632265Y366270D01*
X632303Y366330D01*
X632344Y366389D01*
X632388Y366445D01*
X632435Y366499D01*
X632484Y366550D01*
X632537Y366598D01*
X632592Y366644D01*
X632649Y366686D01*
X632709Y366726D01*
X632770Y366762D01*
X632834Y366795D01*
X632899Y366824D01*
X632965Y366850D01*
X633033Y366873D01*
X633102Y366892D01*
X633172Y366907D01*
X633242Y366918D01*
X633313Y366926D01*
X633384Y366930D01*
X633456Y366930D01*
X633527Y366926D01*
X633598Y366918D01*
X633668Y366907D01*
X633738Y366892D01*
X633807Y366873D01*
X633875Y366850D01*
X633941Y366824D01*
X634006Y366795D01*
X634070Y366762D01*
X634131Y366726D01*
X634191Y366686D01*
X634248Y366644D01*
X634303Y366598D01*
X634356Y366550D01*
X634405Y366499D01*
X634452Y366445D01*
X634496Y366389D01*
X634537Y366330D01*
X634575Y366270D01*
X634610Y366207D01*
X634641Y366143D01*
X634669Y366077D01*
X634693Y366010D01*
X634714Y365942D01*
X634731Y365872D01*
X634744Y365802D01*
X634753Y365732D01*
X634759Y365660D01*
X634761Y365589D01*
X634760Y365589D02*
X634760Y364248D01*
X634760Y365857D02*
X636905Y366929D01*
X634224Y369671D02*
X634224Y371279D01*
X634226Y371344D01*
X634232Y371408D01*
X634242Y371472D01*
X634255Y371536D01*
X634273Y371598D01*
X634294Y371659D01*
X634318Y371719D01*
X634347Y371777D01*
X634379Y371834D01*
X634414Y371888D01*
X634452Y371940D01*
X634494Y371990D01*
X634538Y372037D01*
X634585Y372081D01*
X634635Y372123D01*
X634687Y372161D01*
X634741Y372196D01*
X634798Y372228D01*
X634856Y372257D01*
X634916Y372281D01*
X634977Y372302D01*
X635039Y372320D01*
X635103Y372333D01*
X635167Y372343D01*
X635231Y372349D01*
X635296Y372351D01*
X635296Y372352D02*
X635564Y372352D01*
X635635Y372350D01*
X635707Y372344D01*
X635777Y372335D01*
X635847Y372322D01*
X635917Y372305D01*
X635985Y372284D01*
X636052Y372260D01*
X636118Y372232D01*
X636182Y372201D01*
X636245Y372166D01*
X636305Y372128D01*
X636364Y372087D01*
X636420Y372043D01*
X636474Y371996D01*
X636525Y371947D01*
X636573Y371894D01*
X636619Y371839D01*
X636661Y371782D01*
X636701Y371722D01*
X636737Y371661D01*
X636770Y371597D01*
X636799Y371532D01*
X636825Y371466D01*
X636848Y371398D01*
X636867Y371329D01*
X636882Y371259D01*
X636893Y371189D01*
X636901Y371118D01*
X636905Y371047D01*
X636905Y370975D01*
X636901Y370904D01*
X636893Y370833D01*
X636882Y370763D01*
X636867Y370693D01*
X636848Y370624D01*
X636825Y370556D01*
X636799Y370490D01*
X636770Y370425D01*
X636737Y370361D01*
X636701Y370300D01*
X636661Y370240D01*
X636619Y370183D01*
X636573Y370128D01*
X636525Y370075D01*
X636474Y370026D01*
X636420Y369979D01*
X636364Y369935D01*
X636305Y369894D01*
X636245Y369856D01*
X636182Y369821D01*
X636118Y369790D01*
X636052Y369762D01*
X635985Y369738D01*
X635917Y369717D01*
X635847Y369700D01*
X635777Y369687D01*
X635707Y369678D01*
X635635Y369672D01*
X635564Y369670D01*
X635564Y369671D02*
X634224Y369671D01*
X634133Y369673D01*
X634042Y369679D01*
X633952Y369688D01*
X633861Y369702D01*
X633772Y369719D01*
X633684Y369740D01*
X633596Y369765D01*
X633509Y369794D01*
X633424Y369826D01*
X633340Y369861D01*
X633258Y369901D01*
X633178Y369943D01*
X633099Y369989D01*
X633023Y370039D01*
X632949Y370091D01*
X632876Y370147D01*
X632807Y370206D01*
X632740Y370267D01*
X632675Y370332D01*
X632614Y370399D01*
X632555Y370468D01*
X632499Y370540D01*
X632447Y370615D01*
X632397Y370691D01*
X632351Y370770D01*
X632309Y370850D01*
X632269Y370932D01*
X632234Y371016D01*
X632202Y371101D01*
X632173Y371188D01*
X632148Y371275D01*
X632127Y371364D01*
X632110Y371453D01*
X632096Y371543D01*
X632087Y371634D01*
X632081Y371725D01*
X632079Y371816D01*
X598805Y364248D02*
X593979Y364248D01*
X593979Y365589D01*
X593981Y365660D01*
X593987Y365732D01*
X593996Y365802D01*
X594009Y365872D01*
X594026Y365942D01*
X594047Y366010D01*
X594071Y366077D01*
X594099Y366143D01*
X594130Y366207D01*
X594165Y366270D01*
X594203Y366330D01*
X594244Y366389D01*
X594288Y366445D01*
X594335Y366499D01*
X594384Y366550D01*
X594437Y366598D01*
X594492Y366644D01*
X594549Y366686D01*
X594609Y366726D01*
X594670Y366762D01*
X594734Y366795D01*
X594799Y366824D01*
X594865Y366850D01*
X594933Y366873D01*
X595002Y366892D01*
X595072Y366907D01*
X595142Y366918D01*
X595213Y366926D01*
X595284Y366930D01*
X595356Y366930D01*
X595427Y366926D01*
X595498Y366918D01*
X595568Y366907D01*
X595638Y366892D01*
X595707Y366873D01*
X595775Y366850D01*
X595841Y366824D01*
X595906Y366795D01*
X595970Y366762D01*
X596031Y366726D01*
X596091Y366686D01*
X596148Y366644D01*
X596203Y366598D01*
X596256Y366550D01*
X596305Y366499D01*
X596352Y366445D01*
X596396Y366389D01*
X596437Y366330D01*
X596475Y366270D01*
X596510Y366207D01*
X596541Y366143D01*
X596569Y366077D01*
X596593Y366010D01*
X596614Y365942D01*
X596631Y365872D01*
X596644Y365802D01*
X596653Y365732D01*
X596659Y365660D01*
X596661Y365589D01*
X596660Y365589D02*
X596660Y364248D01*
X596660Y365857D02*
X598805Y366929D01*
X594515Y369671D02*
X593979Y369671D01*
X593979Y372352D01*
X598805Y371011D01*
X560705Y364248D02*
X555879Y364248D01*
X555879Y365589D01*
X555881Y365660D01*
X555887Y365732D01*
X555896Y365802D01*
X555909Y365872D01*
X555926Y365942D01*
X555947Y366010D01*
X555971Y366077D01*
X555999Y366143D01*
X556030Y366207D01*
X556065Y366270D01*
X556103Y366330D01*
X556144Y366389D01*
X556188Y366445D01*
X556235Y366499D01*
X556284Y366550D01*
X556337Y366598D01*
X556392Y366644D01*
X556449Y366686D01*
X556509Y366726D01*
X556570Y366762D01*
X556634Y366795D01*
X556699Y366824D01*
X556765Y366850D01*
X556833Y366873D01*
X556902Y366892D01*
X556972Y366907D01*
X557042Y366918D01*
X557113Y366926D01*
X557184Y366930D01*
X557256Y366930D01*
X557327Y366926D01*
X557398Y366918D01*
X557468Y366907D01*
X557538Y366892D01*
X557607Y366873D01*
X557675Y366850D01*
X557741Y366824D01*
X557806Y366795D01*
X557870Y366762D01*
X557931Y366726D01*
X557991Y366686D01*
X558048Y366644D01*
X558103Y366598D01*
X558156Y366550D01*
X558205Y366499D01*
X558252Y366445D01*
X558296Y366389D01*
X558337Y366330D01*
X558375Y366270D01*
X558410Y366207D01*
X558441Y366143D01*
X558469Y366077D01*
X558493Y366010D01*
X558514Y365942D01*
X558531Y365872D01*
X558544Y365802D01*
X558553Y365732D01*
X558559Y365660D01*
X558561Y365589D01*
X558560Y365589D02*
X558560Y364248D01*
X558560Y365857D02*
X560705Y366929D01*
X559364Y369670D02*
X559293Y369672D01*
X559221Y369678D01*
X559151Y369687D01*
X559081Y369700D01*
X559011Y369717D01*
X558943Y369738D01*
X558876Y369762D01*
X558810Y369790D01*
X558746Y369821D01*
X558683Y369856D01*
X558623Y369894D01*
X558564Y369935D01*
X558508Y369979D01*
X558454Y370026D01*
X558403Y370075D01*
X558355Y370128D01*
X558309Y370183D01*
X558267Y370240D01*
X558227Y370300D01*
X558191Y370361D01*
X558158Y370425D01*
X558129Y370490D01*
X558103Y370556D01*
X558080Y370624D01*
X558061Y370693D01*
X558046Y370763D01*
X558035Y370833D01*
X558027Y370904D01*
X558023Y370975D01*
X558023Y371047D01*
X558027Y371118D01*
X558035Y371189D01*
X558046Y371259D01*
X558061Y371329D01*
X558080Y371398D01*
X558103Y371466D01*
X558129Y371532D01*
X558158Y371597D01*
X558191Y371661D01*
X558227Y371722D01*
X558267Y371782D01*
X558309Y371839D01*
X558355Y371894D01*
X558403Y371947D01*
X558454Y371996D01*
X558508Y372043D01*
X558564Y372087D01*
X558623Y372128D01*
X558683Y372166D01*
X558746Y372201D01*
X558810Y372232D01*
X558876Y372260D01*
X558943Y372284D01*
X559011Y372305D01*
X559081Y372322D01*
X559151Y372335D01*
X559221Y372344D01*
X559293Y372350D01*
X559364Y372352D01*
X559435Y372350D01*
X559507Y372344D01*
X559577Y372335D01*
X559647Y372322D01*
X559717Y372305D01*
X559785Y372284D01*
X559852Y372260D01*
X559918Y372232D01*
X559982Y372201D01*
X560045Y372166D01*
X560105Y372128D01*
X560164Y372087D01*
X560220Y372043D01*
X560274Y371996D01*
X560325Y371947D01*
X560373Y371894D01*
X560419Y371839D01*
X560461Y371782D01*
X560501Y371722D01*
X560537Y371661D01*
X560570Y371597D01*
X560599Y371532D01*
X560625Y371466D01*
X560648Y371398D01*
X560667Y371329D01*
X560682Y371259D01*
X560693Y371189D01*
X560701Y371118D01*
X560705Y371047D01*
X560705Y370975D01*
X560701Y370904D01*
X560693Y370833D01*
X560682Y370763D01*
X560667Y370693D01*
X560648Y370624D01*
X560625Y370556D01*
X560599Y370490D01*
X560570Y370425D01*
X560537Y370361D01*
X560501Y370300D01*
X560461Y370240D01*
X560419Y370183D01*
X560373Y370128D01*
X560325Y370075D01*
X560274Y370026D01*
X560220Y369979D01*
X560164Y369935D01*
X560105Y369894D01*
X560045Y369856D01*
X559982Y369821D01*
X559918Y369790D01*
X559852Y369762D01*
X559785Y369738D01*
X559717Y369717D01*
X559647Y369700D01*
X559577Y369687D01*
X559507Y369678D01*
X559435Y369672D01*
X559364Y369670D01*
X556951Y369939D02*
X556886Y369941D01*
X556822Y369947D01*
X556758Y369957D01*
X556694Y369970D01*
X556632Y369988D01*
X556571Y370009D01*
X556511Y370033D01*
X556453Y370062D01*
X556396Y370094D01*
X556342Y370129D01*
X556290Y370167D01*
X556240Y370209D01*
X556193Y370253D01*
X556149Y370300D01*
X556107Y370350D01*
X556069Y370402D01*
X556034Y370456D01*
X556002Y370513D01*
X555973Y370571D01*
X555949Y370631D01*
X555928Y370692D01*
X555910Y370754D01*
X555897Y370818D01*
X555887Y370882D01*
X555881Y370946D01*
X555879Y371011D01*
X555881Y371076D01*
X555887Y371140D01*
X555897Y371204D01*
X555910Y371268D01*
X555928Y371330D01*
X555949Y371391D01*
X555973Y371451D01*
X556002Y371509D01*
X556034Y371566D01*
X556069Y371620D01*
X556107Y371672D01*
X556149Y371722D01*
X556193Y371769D01*
X556240Y371813D01*
X556290Y371855D01*
X556342Y371893D01*
X556396Y371928D01*
X556453Y371960D01*
X556511Y371989D01*
X556571Y372013D01*
X556632Y372034D01*
X556694Y372052D01*
X556758Y372065D01*
X556822Y372075D01*
X556886Y372081D01*
X556951Y372083D01*
X557016Y372081D01*
X557080Y372075D01*
X557144Y372065D01*
X557208Y372052D01*
X557270Y372034D01*
X557331Y372013D01*
X557391Y371989D01*
X557449Y371960D01*
X557506Y371928D01*
X557560Y371893D01*
X557612Y371855D01*
X557662Y371813D01*
X557709Y371769D01*
X557753Y371722D01*
X557795Y371672D01*
X557833Y371620D01*
X557868Y371566D01*
X557900Y371509D01*
X557929Y371451D01*
X557953Y371391D01*
X557974Y371330D01*
X557992Y371268D01*
X558005Y371204D01*
X558015Y371140D01*
X558021Y371076D01*
X558023Y371011D01*
X558021Y370946D01*
X558015Y370882D01*
X558005Y370818D01*
X557992Y370754D01*
X557974Y370692D01*
X557953Y370631D01*
X557929Y370571D01*
X557900Y370513D01*
X557868Y370456D01*
X557833Y370402D01*
X557795Y370350D01*
X557753Y370300D01*
X557709Y370253D01*
X557662Y370209D01*
X557612Y370167D01*
X557560Y370129D01*
X557506Y370094D01*
X557449Y370062D01*
X557391Y370033D01*
X557331Y370009D01*
X557270Y369988D01*
X557208Y369970D01*
X557144Y369957D01*
X557080Y369947D01*
X557016Y369941D01*
X556951Y369939D01*
X522605Y364248D02*
X517779Y364248D01*
X517779Y365589D01*
X517781Y365660D01*
X517787Y365732D01*
X517796Y365802D01*
X517809Y365872D01*
X517826Y365942D01*
X517847Y366010D01*
X517871Y366077D01*
X517899Y366143D01*
X517930Y366207D01*
X517965Y366270D01*
X518003Y366330D01*
X518044Y366389D01*
X518088Y366445D01*
X518135Y366499D01*
X518184Y366550D01*
X518237Y366598D01*
X518292Y366644D01*
X518349Y366686D01*
X518409Y366726D01*
X518470Y366762D01*
X518534Y366795D01*
X518599Y366824D01*
X518665Y366850D01*
X518733Y366873D01*
X518802Y366892D01*
X518872Y366907D01*
X518942Y366918D01*
X519013Y366926D01*
X519084Y366930D01*
X519156Y366930D01*
X519227Y366926D01*
X519298Y366918D01*
X519368Y366907D01*
X519438Y366892D01*
X519507Y366873D01*
X519575Y366850D01*
X519641Y366824D01*
X519706Y366795D01*
X519770Y366762D01*
X519831Y366726D01*
X519891Y366686D01*
X519948Y366644D01*
X520003Y366598D01*
X520056Y366550D01*
X520105Y366499D01*
X520152Y366445D01*
X520196Y366389D01*
X520237Y366330D01*
X520275Y366270D01*
X520310Y366207D01*
X520341Y366143D01*
X520369Y366077D01*
X520393Y366010D01*
X520414Y365942D01*
X520431Y365872D01*
X520444Y365802D01*
X520453Y365732D01*
X520459Y365660D01*
X520461Y365589D01*
X520460Y365589D02*
X520460Y364248D01*
X520460Y365857D02*
X522605Y366929D01*
X520460Y370743D02*
X520460Y372352D01*
X520460Y370743D02*
X520458Y370678D01*
X520452Y370614D01*
X520442Y370550D01*
X520429Y370486D01*
X520411Y370424D01*
X520390Y370363D01*
X520366Y370303D01*
X520337Y370245D01*
X520305Y370188D01*
X520270Y370134D01*
X520232Y370082D01*
X520190Y370032D01*
X520146Y369985D01*
X520099Y369941D01*
X520049Y369899D01*
X519997Y369861D01*
X519943Y369826D01*
X519886Y369794D01*
X519828Y369765D01*
X519768Y369741D01*
X519707Y369720D01*
X519645Y369702D01*
X519581Y369689D01*
X519517Y369679D01*
X519453Y369673D01*
X519388Y369671D01*
X519120Y369671D01*
X519120Y369670D02*
X519049Y369672D01*
X518977Y369678D01*
X518907Y369687D01*
X518837Y369700D01*
X518767Y369717D01*
X518699Y369738D01*
X518632Y369762D01*
X518566Y369790D01*
X518502Y369821D01*
X518439Y369856D01*
X518379Y369894D01*
X518320Y369935D01*
X518264Y369979D01*
X518210Y370026D01*
X518159Y370075D01*
X518111Y370128D01*
X518065Y370183D01*
X518023Y370240D01*
X517983Y370300D01*
X517947Y370361D01*
X517914Y370425D01*
X517885Y370490D01*
X517859Y370556D01*
X517836Y370624D01*
X517817Y370693D01*
X517802Y370763D01*
X517791Y370833D01*
X517783Y370904D01*
X517779Y370975D01*
X517779Y371047D01*
X517783Y371118D01*
X517791Y371189D01*
X517802Y371259D01*
X517817Y371329D01*
X517836Y371398D01*
X517859Y371466D01*
X517885Y371532D01*
X517914Y371597D01*
X517947Y371661D01*
X517983Y371722D01*
X518023Y371782D01*
X518065Y371839D01*
X518111Y371894D01*
X518159Y371947D01*
X518210Y371996D01*
X518264Y372043D01*
X518320Y372087D01*
X518379Y372128D01*
X518439Y372166D01*
X518502Y372201D01*
X518566Y372232D01*
X518632Y372260D01*
X518699Y372284D01*
X518767Y372305D01*
X518837Y372322D01*
X518907Y372335D01*
X518977Y372344D01*
X519049Y372350D01*
X519120Y372352D01*
X520460Y372352D01*
X520551Y372350D01*
X520642Y372344D01*
X520732Y372335D01*
X520823Y372321D01*
X520912Y372304D01*
X521000Y372283D01*
X521088Y372258D01*
X521175Y372229D01*
X521260Y372197D01*
X521344Y372162D01*
X521426Y372122D01*
X521506Y372080D01*
X521585Y372034D01*
X521661Y371984D01*
X521735Y371932D01*
X521808Y371876D01*
X521877Y371817D01*
X521944Y371756D01*
X522009Y371691D01*
X522070Y371624D01*
X522129Y371555D01*
X522185Y371482D01*
X522237Y371408D01*
X522287Y371332D01*
X522333Y371253D01*
X522375Y371173D01*
X522415Y371091D01*
X522450Y371007D01*
X522482Y370922D01*
X522511Y370835D01*
X522536Y370747D01*
X522557Y370659D01*
X522574Y370570D01*
X522588Y370479D01*
X522597Y370389D01*
X522603Y370298D01*
X522605Y370207D01*
X484505Y361505D02*
X479679Y361505D01*
X479679Y362846D01*
X479681Y362917D01*
X479687Y362989D01*
X479696Y363059D01*
X479709Y363129D01*
X479726Y363199D01*
X479747Y363267D01*
X479771Y363334D01*
X479799Y363400D01*
X479830Y363464D01*
X479865Y363527D01*
X479903Y363587D01*
X479944Y363646D01*
X479988Y363702D01*
X480035Y363756D01*
X480084Y363807D01*
X480137Y363855D01*
X480192Y363901D01*
X480249Y363943D01*
X480309Y363983D01*
X480370Y364019D01*
X480434Y364052D01*
X480499Y364081D01*
X480565Y364107D01*
X480633Y364130D01*
X480702Y364149D01*
X480772Y364164D01*
X480842Y364175D01*
X480913Y364183D01*
X480984Y364187D01*
X481056Y364187D01*
X481127Y364183D01*
X481198Y364175D01*
X481268Y364164D01*
X481338Y364149D01*
X481407Y364130D01*
X481475Y364107D01*
X481541Y364081D01*
X481606Y364052D01*
X481670Y364019D01*
X481731Y363983D01*
X481791Y363943D01*
X481848Y363901D01*
X481903Y363855D01*
X481956Y363807D01*
X482005Y363756D01*
X482052Y363702D01*
X482096Y363646D01*
X482137Y363587D01*
X482175Y363527D01*
X482210Y363464D01*
X482241Y363400D01*
X482269Y363334D01*
X482293Y363267D01*
X482314Y363199D01*
X482331Y363129D01*
X482344Y363059D01*
X482353Y362989D01*
X482359Y362917D01*
X482361Y362846D01*
X482360Y362846D02*
X482360Y361505D01*
X482360Y363114D02*
X484505Y364186D01*
X480751Y366928D02*
X479679Y368268D01*
X484505Y368268D01*
X484505Y366928D02*
X484505Y369609D01*
X482092Y372414D02*
X481972Y372416D01*
X481852Y372421D01*
X481732Y372430D01*
X481612Y372443D01*
X481493Y372459D01*
X481374Y372479D01*
X481256Y372503D01*
X481139Y372530D01*
X481023Y372560D01*
X480908Y372594D01*
X480793Y372632D01*
X480680Y372673D01*
X480569Y372717D01*
X480458Y372765D01*
X480349Y372816D01*
X480349Y372817D02*
X480292Y372838D01*
X480236Y372864D01*
X480181Y372892D01*
X480129Y372924D01*
X480078Y372960D01*
X480030Y372998D01*
X479984Y373039D01*
X479941Y373083D01*
X479901Y373129D01*
X479864Y373178D01*
X479830Y373230D01*
X479799Y373283D01*
X479771Y373338D01*
X479747Y373394D01*
X479726Y373452D01*
X479709Y373511D01*
X479696Y373571D01*
X479687Y373632D01*
X479681Y373694D01*
X479679Y373755D01*
X479681Y373816D01*
X479687Y373878D01*
X479696Y373939D01*
X479709Y373999D01*
X479726Y374058D01*
X479747Y374116D01*
X479771Y374172D01*
X479799Y374227D01*
X479830Y374280D01*
X479864Y374332D01*
X479901Y374381D01*
X479941Y374427D01*
X479984Y374471D01*
X480030Y374512D01*
X480078Y374550D01*
X480129Y374586D01*
X480181Y374618D01*
X480236Y374646D01*
X480292Y374672D01*
X480349Y374693D01*
X480458Y374744D01*
X480569Y374792D01*
X480680Y374836D01*
X480793Y374877D01*
X480908Y374915D01*
X481023Y374949D01*
X481139Y374979D01*
X481256Y375006D01*
X481374Y375030D01*
X481493Y375050D01*
X481612Y375066D01*
X481732Y375079D01*
X481852Y375088D01*
X481972Y375093D01*
X482092Y375095D01*
X482092Y372414D02*
X482212Y372416D01*
X482332Y372421D01*
X482452Y372430D01*
X482572Y372443D01*
X482691Y372459D01*
X482810Y372479D01*
X482928Y372503D01*
X483045Y372530D01*
X483161Y372560D01*
X483276Y372594D01*
X483391Y372632D01*
X483504Y372673D01*
X483615Y372717D01*
X483726Y372765D01*
X483835Y372816D01*
X483835Y372817D02*
X483892Y372838D01*
X483948Y372864D01*
X484003Y372892D01*
X484055Y372924D01*
X484106Y372960D01*
X484154Y372998D01*
X484200Y373039D01*
X484243Y373083D01*
X484283Y373129D01*
X484320Y373178D01*
X484354Y373230D01*
X484385Y373283D01*
X484413Y373338D01*
X484437Y373394D01*
X484458Y373452D01*
X484475Y373511D01*
X484488Y373571D01*
X484497Y373632D01*
X484503Y373694D01*
X484505Y373755D01*
X483835Y374693D02*
X483726Y374744D01*
X483615Y374792D01*
X483504Y374836D01*
X483391Y374877D01*
X483276Y374915D01*
X483161Y374949D01*
X483045Y374979D01*
X482928Y375006D01*
X482810Y375030D01*
X482691Y375050D01*
X482572Y375066D01*
X482452Y375079D01*
X482332Y375088D01*
X482212Y375093D01*
X482092Y375095D01*
X483835Y374693D02*
X483892Y374672D01*
X483948Y374646D01*
X484003Y374618D01*
X484055Y374586D01*
X484106Y374550D01*
X484154Y374512D01*
X484200Y374471D01*
X484243Y374427D01*
X484283Y374380D01*
X484320Y374332D01*
X484354Y374280D01*
X484385Y374227D01*
X484413Y374172D01*
X484437Y374116D01*
X484458Y374058D01*
X484475Y373999D01*
X484488Y373939D01*
X484497Y373878D01*
X484503Y373816D01*
X484505Y373755D01*
X483433Y372682D02*
X480751Y374827D01*
X446405Y361505D02*
X441579Y361505D01*
X441579Y362846D01*
X441581Y362917D01*
X441587Y362989D01*
X441596Y363059D01*
X441609Y363129D01*
X441626Y363199D01*
X441647Y363267D01*
X441671Y363334D01*
X441699Y363400D01*
X441730Y363464D01*
X441765Y363527D01*
X441803Y363587D01*
X441844Y363646D01*
X441888Y363702D01*
X441935Y363756D01*
X441984Y363807D01*
X442037Y363855D01*
X442092Y363901D01*
X442149Y363943D01*
X442209Y363983D01*
X442270Y364019D01*
X442334Y364052D01*
X442399Y364081D01*
X442465Y364107D01*
X442533Y364130D01*
X442602Y364149D01*
X442672Y364164D01*
X442742Y364175D01*
X442813Y364183D01*
X442884Y364187D01*
X442956Y364187D01*
X443027Y364183D01*
X443098Y364175D01*
X443168Y364164D01*
X443238Y364149D01*
X443307Y364130D01*
X443375Y364107D01*
X443441Y364081D01*
X443506Y364052D01*
X443570Y364019D01*
X443631Y363983D01*
X443691Y363943D01*
X443748Y363901D01*
X443803Y363855D01*
X443856Y363807D01*
X443905Y363756D01*
X443952Y363702D01*
X443996Y363646D01*
X444037Y363587D01*
X444075Y363527D01*
X444110Y363464D01*
X444141Y363400D01*
X444169Y363334D01*
X444193Y363267D01*
X444214Y363199D01*
X444231Y363129D01*
X444244Y363059D01*
X444253Y362989D01*
X444259Y362917D01*
X444261Y362846D01*
X444260Y362846D02*
X444260Y361505D01*
X444260Y363114D02*
X446405Y364186D01*
X442651Y366928D02*
X441579Y368268D01*
X446405Y368268D01*
X446405Y366928D02*
X446405Y369609D01*
X442651Y372414D02*
X441579Y373755D01*
X446405Y373755D01*
X446405Y375095D02*
X446405Y372414D01*
X408305Y361505D02*
X403479Y361505D01*
X403479Y362846D01*
X403481Y362917D01*
X403487Y362989D01*
X403496Y363059D01*
X403509Y363129D01*
X403526Y363199D01*
X403547Y363267D01*
X403571Y363334D01*
X403599Y363400D01*
X403630Y363464D01*
X403665Y363527D01*
X403703Y363587D01*
X403744Y363646D01*
X403788Y363702D01*
X403835Y363756D01*
X403884Y363807D01*
X403937Y363855D01*
X403992Y363901D01*
X404049Y363943D01*
X404109Y363983D01*
X404170Y364019D01*
X404234Y364052D01*
X404299Y364081D01*
X404365Y364107D01*
X404433Y364130D01*
X404502Y364149D01*
X404572Y364164D01*
X404642Y364175D01*
X404713Y364183D01*
X404784Y364187D01*
X404856Y364187D01*
X404927Y364183D01*
X404998Y364175D01*
X405068Y364164D01*
X405138Y364149D01*
X405207Y364130D01*
X405275Y364107D01*
X405341Y364081D01*
X405406Y364052D01*
X405470Y364019D01*
X405531Y363983D01*
X405591Y363943D01*
X405648Y363901D01*
X405703Y363855D01*
X405756Y363807D01*
X405805Y363756D01*
X405852Y363702D01*
X405896Y363646D01*
X405937Y363587D01*
X405975Y363527D01*
X406010Y363464D01*
X406041Y363400D01*
X406069Y363334D01*
X406093Y363267D01*
X406114Y363199D01*
X406131Y363129D01*
X406144Y363059D01*
X406153Y362989D01*
X406159Y362917D01*
X406161Y362846D01*
X406160Y362846D02*
X406160Y361505D01*
X406160Y363114D02*
X408305Y364186D01*
X404551Y366928D02*
X403479Y368268D01*
X408305Y368268D01*
X408305Y366928D02*
X408305Y369609D01*
X403479Y373889D02*
X403481Y373957D01*
X403487Y374024D01*
X403496Y374091D01*
X403509Y374158D01*
X403526Y374223D01*
X403547Y374288D01*
X403571Y374351D01*
X403599Y374413D01*
X403630Y374473D01*
X403664Y374531D01*
X403702Y374587D01*
X403742Y374642D01*
X403786Y374693D01*
X403833Y374742D01*
X403882Y374789D01*
X403933Y374833D01*
X403988Y374873D01*
X404044Y374911D01*
X404102Y374945D01*
X404162Y374976D01*
X404224Y375004D01*
X404287Y375028D01*
X404352Y375049D01*
X404417Y375066D01*
X404484Y375079D01*
X404551Y375088D01*
X404618Y375094D01*
X404686Y375096D01*
X403479Y373888D02*
X403481Y373810D01*
X403487Y373732D01*
X403497Y373655D01*
X403510Y373578D01*
X403528Y373502D01*
X403549Y373427D01*
X403574Y373353D01*
X403603Y373281D01*
X403635Y373210D01*
X403671Y373141D01*
X403710Y373073D01*
X403753Y373008D01*
X403799Y372945D01*
X403848Y372884D01*
X403900Y372826D01*
X403955Y372771D01*
X404012Y372718D01*
X404072Y372669D01*
X404135Y372622D01*
X404200Y372579D01*
X404266Y372539D01*
X404335Y372502D01*
X404406Y372469D01*
X404478Y372439D01*
X404552Y372413D01*
X405624Y374693D02*
X405575Y374742D01*
X405523Y374789D01*
X405468Y374832D01*
X405411Y374873D01*
X405352Y374911D01*
X405291Y374945D01*
X405228Y374976D01*
X405164Y375004D01*
X405098Y375028D01*
X405032Y375048D01*
X404964Y375065D01*
X404895Y375078D01*
X404826Y375087D01*
X404756Y375093D01*
X404686Y375095D01*
X405624Y374693D02*
X408305Y372414D01*
X408305Y375095D01*
M02*
