M48
;GenerationSoftware,Autodesk,EAGLE,9.6.2*%
;CreationDate,2021-02-19T19:48:46Z*%
FMAT,2
ICI,OFF
METRIC,TZ,000.000
T10C0.350
T9C0.700
T8C0.813
T7C0.900
T6C1.016
T5C1.100
T4C1.194
T3C2.300
T2C3.200
T1C3.302
%
G90
M71
T1
X13970Y70866
T2
X54808Y63500
X79812Y63500
T3
X41090Y69100
X27540Y69100
X34290Y69900
T4
X67521Y66041
X68966Y63500
X62939Y60959
X65230Y60959
X67521Y60959
X71257Y63500
X69812Y60959
X72103Y60959
X65230Y66041
X69812Y66041
X72103Y66041
X62093Y63500
X62939Y66041
X64384Y63500
X66675Y63500
T5
X29210Y57150
X21590Y57150
T6
X44450Y16510
X41910Y16510
X39370Y16510
X36830Y16510
X34290Y16510
X31750Y16510
X29210Y16510
X24130Y16510
X21590Y16510
X19050Y16510
X16510Y16510
X16383Y43180
X19177Y43180
X11430Y16510
X16510Y55880
X15367Y26670
X11430Y55880
X38100Y57150
X13970Y55880
X35560Y57150
X35560Y48260
X38100Y48260
X26670Y16510
X13970Y16510
X46990Y16510
X49530Y16510
X11430Y19812
X13970Y19812
X16510Y19812
X19050Y19812
X21590Y19812
X24130Y19812
X26670Y19812
X29210Y19812
X31750Y19812
X34290Y19812
X36830Y19812
X39370Y19812
X41910Y19812
X44450Y19812
X46990Y19812
X49530Y19812
X12573Y26670
T7
X81280Y33020
X81280Y40640
X77470Y33020
X77470Y40640
X73660Y33020
X73660Y40640
X69850Y33020
X69850Y40640
X66040Y33020
X66040Y40640
X62230Y33020
X62230Y40640
X58420Y33020
X58420Y40640
X54610Y33020
X54610Y40640
X50800Y33020
X50800Y40640
X46990Y33020
X46990Y40640
X43180Y33020
X43180Y40640
X39370Y33020
X39370Y40640
X35590Y66100
X32990Y66100
X30890Y66100
X37690Y66100
X37690Y63600
X30890Y63650
X66650Y2175
X10000Y2175
X12000Y2175
X12000Y4175
X14000Y2175
X14000Y4175
X16000Y2175
X16000Y4175
X18000Y2175
X18000Y4175
X20000Y2175
X20000Y4175
X22000Y2175
X22000Y4175
X24000Y2175
X24000Y4175
X26000Y2175
X26000Y4175
X28000Y2175
X28000Y4175
X56650Y2175
X56650Y4175
X33325Y2175
X33325Y4175
X35325Y2175
X35325Y4175
X37325Y2175
X37325Y4175
X39325Y2175
X39325Y4175
X41325Y2175
X41325Y4175
X43325Y2175
X43325Y4175
X45325Y2175
X10000Y4175
X47325Y2175
X47325Y4175
X49325Y2175
X49325Y4175
X51325Y2175
X51325Y4175
X58650Y2175
X58650Y4175
X60650Y2175
X60650Y4175
X62650Y2175
X62650Y4175
X64650Y2175
X64650Y4175
X66650Y4175
X68650Y2175
X68650Y4175
X70650Y2175
X70650Y4175
X72650Y2175
X72650Y4175
X74650Y2175
X74650Y4175
X45325Y4175
T8
X31750Y30480
X21590Y30480
X34290Y30480
X34290Y38100
X31750Y38100
X29210Y38100
X26670Y38100
X24130Y38100
X21590Y38100
X19050Y38100
X16510Y38100
X13970Y38100
X11430Y38100
X24130Y30480
X19050Y30480
X16510Y30480
X29210Y30480
X26670Y30480
X13970Y30480
X11430Y30480
T9
X10180Y48260
X24110Y48260
X21610Y48260
X12680Y48260
T10
X34138Y21946
X28651Y22860
X23470Y12040
X29261Y11582
X31547Y9296
X36119Y23165
X30023Y14173
X32614Y10820
X37186Y11735
X40996Y10058
X25451Y12192
X37795Y14326
X35814Y21946
M30